%TF.GenerationSoftware,KiCad,Pcbnew,9.0.7*%
%TF.CreationDate,2026-03-08T19:53:27+01:00*%
%TF.ProjectId,devboard,64657662-6f61-4726-942e-6b696361645f,rev?*%
%TF.SameCoordinates,Original*%
%TF.FileFunction,Legend,Top*%
%TF.FilePolarity,Positive*%
%FSLAX46Y46*%
G04 Gerber Fmt 4.6, Leading zero omitted, Abs format (unit mm)*
G04 Created by KiCad (PCBNEW 9.0.7) date 2026-03-08 19:53:27*
%MOMM*%
%LPD*%
G01*
G04 APERTURE LIST*
%ADD10C,0.200000*%
%ADD11C,0.150000*%
%ADD12C,0.120000*%
%ADD13C,0.000000*%
G04 APERTURE END LIST*
D10*
X158645432Y-123178707D02*
X158591004Y-123233136D01*
X158591004Y-123233136D02*
X158536575Y-123341993D01*
X158536575Y-123341993D02*
X158536575Y-123450850D01*
X158536575Y-123450850D02*
X158591004Y-123559707D01*
X158591004Y-123559707D02*
X158645432Y-123614136D01*
X158645432Y-123614136D02*
X158754290Y-123668564D01*
X158754290Y-123668564D02*
X158863147Y-123668564D01*
X158863147Y-123668564D02*
X158972004Y-123614136D01*
X158972004Y-123614136D02*
X159026432Y-123559707D01*
X159026432Y-123559707D02*
X159080861Y-123450850D01*
X159080861Y-123450850D02*
X159080861Y-123341993D01*
X159080861Y-123341993D02*
X159026432Y-123233136D01*
X159026432Y-123233136D02*
X158972004Y-123178707D01*
X158536575Y-123178707D02*
X158972004Y-123178707D01*
X158972004Y-123178707D02*
X159026432Y-123124279D01*
X159026432Y-123124279D02*
X159026432Y-123069850D01*
X159026432Y-123069850D02*
X158972004Y-122960993D01*
X158972004Y-122960993D02*
X158863147Y-122906564D01*
X158863147Y-122906564D02*
X158591004Y-122906564D01*
X158591004Y-122906564D02*
X158427718Y-123015422D01*
X158427718Y-123015422D02*
X158318861Y-123178707D01*
X158318861Y-123178707D02*
X158264432Y-123396422D01*
X158264432Y-123396422D02*
X158318861Y-123614136D01*
X158318861Y-123614136D02*
X158427718Y-123777422D01*
X158427718Y-123777422D02*
X158591004Y-123886279D01*
X158591004Y-123886279D02*
X158808718Y-123940707D01*
X158808718Y-123940707D02*
X159026432Y-123886279D01*
X159026432Y-123886279D02*
X159189718Y-123777422D01*
X159189718Y-123777422D02*
X159298575Y-123614136D01*
X159298575Y-123614136D02*
X159353004Y-123396422D01*
X159353004Y-123396422D02*
X159298575Y-123178707D01*
X159298575Y-123178707D02*
X159189718Y-123015422D01*
X158863147Y-122471136D02*
X158863147Y-121926851D01*
X159189718Y-122579993D02*
X158046718Y-122198993D01*
X158046718Y-122198993D02*
X159189718Y-121817993D01*
X158427718Y-120947137D02*
X159189718Y-120947137D01*
X157992290Y-121219279D02*
X158808718Y-121491422D01*
X158808718Y-121491422D02*
X158808718Y-120783851D01*
X159189718Y-119749708D02*
X159189718Y-120402851D01*
X159189718Y-120076280D02*
X158046718Y-120076280D01*
X158046718Y-120076280D02*
X158210004Y-120185137D01*
X158210004Y-120185137D02*
X158318861Y-120293994D01*
X158318861Y-120293994D02*
X158373290Y-120402851D01*
X159189718Y-119259852D02*
X158046718Y-119259852D01*
X159189718Y-118606709D02*
X158536575Y-119096566D01*
X158046718Y-118606709D02*
X158699861Y-119259852D01*
D11*
X150623809Y-116678628D02*
X150623809Y-117154819D01*
X150290476Y-116154819D02*
X150623809Y-116678628D01*
X150623809Y-116678628D02*
X150957142Y-116154819D01*
X151814285Y-117154819D02*
X151242857Y-117154819D01*
X151528571Y-117154819D02*
X151528571Y-116154819D01*
X151528571Y-116154819D02*
X151433333Y-116297676D01*
X151433333Y-116297676D02*
X151338095Y-116392914D01*
X151338095Y-116392914D02*
X151242857Y-116440533D01*
X155166667Y-93007200D02*
X155309524Y-93054819D01*
X155309524Y-93054819D02*
X155547619Y-93054819D01*
X155547619Y-93054819D02*
X155642857Y-93007200D01*
X155642857Y-93007200D02*
X155690476Y-92959580D01*
X155690476Y-92959580D02*
X155738095Y-92864342D01*
X155738095Y-92864342D02*
X155738095Y-92769104D01*
X155738095Y-92769104D02*
X155690476Y-92673866D01*
X155690476Y-92673866D02*
X155642857Y-92626247D01*
X155642857Y-92626247D02*
X155547619Y-92578628D01*
X155547619Y-92578628D02*
X155357143Y-92531009D01*
X155357143Y-92531009D02*
X155261905Y-92483390D01*
X155261905Y-92483390D02*
X155214286Y-92435771D01*
X155214286Y-92435771D02*
X155166667Y-92340533D01*
X155166667Y-92340533D02*
X155166667Y-92245295D01*
X155166667Y-92245295D02*
X155214286Y-92150057D01*
X155214286Y-92150057D02*
X155261905Y-92102438D01*
X155261905Y-92102438D02*
X155357143Y-92054819D01*
X155357143Y-92054819D02*
X155595238Y-92054819D01*
X155595238Y-92054819D02*
X155738095Y-92102438D01*
X156071429Y-92054819D02*
X156309524Y-93054819D01*
X156309524Y-93054819D02*
X156500000Y-92340533D01*
X156500000Y-92340533D02*
X156690476Y-93054819D01*
X156690476Y-93054819D02*
X156928572Y-92054819D01*
X157833333Y-93054819D02*
X157261905Y-93054819D01*
X157547619Y-93054819D02*
X157547619Y-92054819D01*
X157547619Y-92054819D02*
X157452381Y-92197676D01*
X157452381Y-92197676D02*
X157357143Y-92292914D01*
X157357143Y-92292914D02*
X157261905Y-92340533D01*
X147866666Y-130754819D02*
X147866666Y-131469104D01*
X147866666Y-131469104D02*
X147819047Y-131611961D01*
X147819047Y-131611961D02*
X147723809Y-131707200D01*
X147723809Y-131707200D02*
X147580952Y-131754819D01*
X147580952Y-131754819D02*
X147485714Y-131754819D01*
X148771428Y-131088152D02*
X148771428Y-131754819D01*
X148533333Y-130707200D02*
X148295238Y-131421485D01*
X148295238Y-131421485D02*
X148914285Y-131421485D01*
X150438095Y-106224819D02*
X150438095Y-107034342D01*
X150438095Y-107034342D02*
X150485714Y-107129580D01*
X150485714Y-107129580D02*
X150533333Y-107177200D01*
X150533333Y-107177200D02*
X150628571Y-107224819D01*
X150628571Y-107224819D02*
X150819047Y-107224819D01*
X150819047Y-107224819D02*
X150914285Y-107177200D01*
X150914285Y-107177200D02*
X150961904Y-107129580D01*
X150961904Y-107129580D02*
X151009523Y-107034342D01*
X151009523Y-107034342D02*
X151009523Y-106224819D01*
X152009523Y-107224819D02*
X151438095Y-107224819D01*
X151723809Y-107224819D02*
X151723809Y-106224819D01*
X151723809Y-106224819D02*
X151628571Y-106367676D01*
X151628571Y-106367676D02*
X151533333Y-106462914D01*
X151533333Y-106462914D02*
X151438095Y-106510533D01*
X153041666Y-90054819D02*
X153041666Y-90769104D01*
X153041666Y-90769104D02*
X152994047Y-90911961D01*
X152994047Y-90911961D02*
X152898809Y-91007200D01*
X152898809Y-91007200D02*
X152755952Y-91054819D01*
X152755952Y-91054819D02*
X152660714Y-91054819D01*
X154041666Y-91054819D02*
X153470238Y-91054819D01*
X153755952Y-91054819D02*
X153755952Y-90054819D01*
X153755952Y-90054819D02*
X153660714Y-90197676D01*
X153660714Y-90197676D02*
X153565476Y-90292914D01*
X153565476Y-90292914D02*
X153470238Y-90340533D01*
X159266666Y-82454819D02*
X159266666Y-83169104D01*
X159266666Y-83169104D02*
X159219047Y-83311961D01*
X159219047Y-83311961D02*
X159123809Y-83407200D01*
X159123809Y-83407200D02*
X158980952Y-83454819D01*
X158980952Y-83454819D02*
X158885714Y-83454819D01*
X159647619Y-82454819D02*
X160266666Y-82454819D01*
X160266666Y-82454819D02*
X159933333Y-82835771D01*
X159933333Y-82835771D02*
X160076190Y-82835771D01*
X160076190Y-82835771D02*
X160171428Y-82883390D01*
X160171428Y-82883390D02*
X160219047Y-82931009D01*
X160219047Y-82931009D02*
X160266666Y-83026247D01*
X160266666Y-83026247D02*
X160266666Y-83264342D01*
X160266666Y-83264342D02*
X160219047Y-83359580D01*
X160219047Y-83359580D02*
X160171428Y-83407200D01*
X160171428Y-83407200D02*
X160076190Y-83454819D01*
X160076190Y-83454819D02*
X159790476Y-83454819D01*
X159790476Y-83454819D02*
X159695238Y-83407200D01*
X159695238Y-83407200D02*
X159647619Y-83359580D01*
X146766666Y-82354819D02*
X146766666Y-83069104D01*
X146766666Y-83069104D02*
X146719047Y-83211961D01*
X146719047Y-83211961D02*
X146623809Y-83307200D01*
X146623809Y-83307200D02*
X146480952Y-83354819D01*
X146480952Y-83354819D02*
X146385714Y-83354819D01*
X147195238Y-82450057D02*
X147242857Y-82402438D01*
X147242857Y-82402438D02*
X147338095Y-82354819D01*
X147338095Y-82354819D02*
X147576190Y-82354819D01*
X147576190Y-82354819D02*
X147671428Y-82402438D01*
X147671428Y-82402438D02*
X147719047Y-82450057D01*
X147719047Y-82450057D02*
X147766666Y-82545295D01*
X147766666Y-82545295D02*
X147766666Y-82640533D01*
X147766666Y-82640533D02*
X147719047Y-82783390D01*
X147719047Y-82783390D02*
X147147619Y-83354819D01*
X147147619Y-83354819D02*
X147766666Y-83354819D01*
X148538095Y-91654819D02*
X148538095Y-92464342D01*
X148538095Y-92464342D02*
X148585714Y-92559580D01*
X148585714Y-92559580D02*
X148633333Y-92607200D01*
X148633333Y-92607200D02*
X148728571Y-92654819D01*
X148728571Y-92654819D02*
X148919047Y-92654819D01*
X148919047Y-92654819D02*
X149014285Y-92607200D01*
X149014285Y-92607200D02*
X149061904Y-92559580D01*
X149061904Y-92559580D02*
X149109523Y-92464342D01*
X149109523Y-92464342D02*
X149109523Y-91654819D01*
X149538095Y-91750057D02*
X149585714Y-91702438D01*
X149585714Y-91702438D02*
X149680952Y-91654819D01*
X149680952Y-91654819D02*
X149919047Y-91654819D01*
X149919047Y-91654819D02*
X150014285Y-91702438D01*
X150014285Y-91702438D02*
X150061904Y-91750057D01*
X150061904Y-91750057D02*
X150109523Y-91845295D01*
X150109523Y-91845295D02*
X150109523Y-91940533D01*
X150109523Y-91940533D02*
X150061904Y-92083390D01*
X150061904Y-92083390D02*
X149490476Y-92654819D01*
X149490476Y-92654819D02*
X150109523Y-92654819D01*
X146338095Y-104154819D02*
X146338095Y-104964342D01*
X146338095Y-104964342D02*
X146385714Y-105059580D01*
X146385714Y-105059580D02*
X146433333Y-105107200D01*
X146433333Y-105107200D02*
X146528571Y-105154819D01*
X146528571Y-105154819D02*
X146719047Y-105154819D01*
X146719047Y-105154819D02*
X146814285Y-105107200D01*
X146814285Y-105107200D02*
X146861904Y-105059580D01*
X146861904Y-105059580D02*
X146909523Y-104964342D01*
X146909523Y-104964342D02*
X146909523Y-104154819D01*
X147814285Y-104488152D02*
X147814285Y-105154819D01*
X147576190Y-104107200D02*
X147338095Y-104821485D01*
X147338095Y-104821485D02*
X147957142Y-104821485D01*
D12*
%TO.C,C6*%
X154065000Y-103657836D02*
X154065000Y-103442164D01*
X154785000Y-103657836D02*
X154785000Y-103442164D01*
%TO.C,C5*%
X156715000Y-106857836D02*
X156715000Y-106642164D01*
X157435000Y-106857836D02*
X157435000Y-106642164D01*
%TO.C,C13*%
X150105580Y-90270000D02*
X149824420Y-90270000D01*
X150105580Y-91290000D02*
X149824420Y-91290000D01*
%TO.C,C4*%
X148632836Y-107640000D02*
X148417164Y-107640000D01*
X148632836Y-108360000D02*
X148417164Y-108360000D01*
%TO.C,C2*%
X154815000Y-117122164D02*
X154815000Y-117337836D01*
X155535000Y-117122164D02*
X155535000Y-117337836D01*
%TO.C,Y1*%
X154585000Y-117520000D02*
X150465000Y-117520000D01*
X154585000Y-120940000D02*
X154585000Y-117520000D01*
%TO.C,C1*%
X158244190Y-106346693D02*
X158396693Y-106194190D01*
X158753307Y-106855810D02*
X158905810Y-106703307D01*
%TO.C,C7*%
X155025000Y-102917836D02*
X155025000Y-102702164D01*
X155745000Y-102917836D02*
X155745000Y-102702164D01*
%TO.C,R7*%
X148941359Y-101590000D02*
X149248641Y-101590000D01*
X148941359Y-102350000D02*
X149248641Y-102350000D01*
%TO.C,C15*%
X149515000Y-119292164D02*
X149515000Y-119507836D01*
X150235000Y-119292164D02*
X150235000Y-119507836D01*
%TO.C,R6*%
X156746359Y-98870000D02*
X157053641Y-98870000D01*
X156746359Y-99630000D02*
X157053641Y-99630000D01*
%TO.C,C11*%
X155740000Y-106527836D02*
X155740000Y-106312164D01*
X156460000Y-106527836D02*
X156460000Y-106312164D01*
%TO.C,C10*%
X155855000Y-117132164D02*
X155855000Y-117347836D01*
X156575000Y-117132164D02*
X156575000Y-117347836D01*
%TO.C,SW1*%
X154855000Y-93780000D02*
X155155000Y-93780000D01*
X154855000Y-97920000D02*
X154855000Y-93780000D01*
X155155000Y-97920000D02*
X154855000Y-97920000D01*
X157695000Y-93780000D02*
X157995000Y-93780000D01*
X157995000Y-93780000D02*
X157995000Y-97920000D01*
X157995000Y-97920000D02*
X157695000Y-97920000D01*
%TO.C,J4*%
X149455000Y-132870000D02*
X149455000Y-131490000D01*
X150835000Y-132870000D02*
X149455000Y-132870000D01*
X152105000Y-130110000D02*
X157295000Y-130110000D01*
X152105000Y-132870000D02*
X152105000Y-130110000D01*
X152105000Y-132870000D02*
X157295000Y-132870000D01*
X157295000Y-132870000D02*
X157295000Y-130110000D01*
%TO.C,R5*%
X153468641Y-116530000D02*
X153161359Y-116530000D01*
X153468641Y-117290000D02*
X153161359Y-117290000D01*
D13*
%TO.C,G\u002A\u002A\u002A*%
G36*
X149193287Y-127073715D02*
G01*
X149185166Y-127081836D01*
X149177046Y-127073715D01*
X149185166Y-127065595D01*
X149193287Y-127073715D01*
G37*
G36*
X149225767Y-127122437D02*
G01*
X149217647Y-127130557D01*
X149209527Y-127122437D01*
X149217647Y-127114316D01*
X149225767Y-127122437D01*
G37*
G36*
X149469374Y-127366043D02*
G01*
X149461253Y-127374163D01*
X149453133Y-127366043D01*
X149461253Y-127357922D01*
X149469374Y-127366043D01*
G37*
G36*
X149518095Y-127398523D02*
G01*
X149509975Y-127406644D01*
X149501854Y-127398523D01*
X149509975Y-127390403D01*
X149518095Y-127398523D01*
G37*
G36*
X149583056Y-127447245D02*
G01*
X149574936Y-127455365D01*
X149566816Y-127447245D01*
X149574936Y-127439125D01*
X149583056Y-127447245D01*
G37*
G36*
X149648018Y-127495966D02*
G01*
X149639898Y-127504086D01*
X149631778Y-127495966D01*
X149639898Y-127487846D01*
X149648018Y-127495966D01*
G37*
G36*
X149696739Y-127528447D02*
G01*
X149688619Y-127536567D01*
X149680499Y-127528447D01*
X149688619Y-127520327D01*
X149696739Y-127528447D01*
G37*
G36*
X149761701Y-127577168D02*
G01*
X149753581Y-127585288D01*
X149745460Y-127577168D01*
X149753581Y-127569048D01*
X149761701Y-127577168D01*
G37*
G36*
X149810422Y-127609649D02*
G01*
X149802302Y-127617769D01*
X149794182Y-127609649D01*
X149802302Y-127601529D01*
X149810422Y-127609649D01*
G37*
G36*
X149875384Y-127658370D02*
G01*
X149867264Y-127666490D01*
X149859143Y-127658370D01*
X149867264Y-127650250D01*
X149875384Y-127658370D01*
G37*
G36*
X149924105Y-127690851D02*
G01*
X149915985Y-127698971D01*
X149907865Y-127690851D01*
X149915985Y-127682731D01*
X149924105Y-127690851D01*
G37*
G36*
X149989067Y-127739572D02*
G01*
X149980946Y-127747692D01*
X149972826Y-127739572D01*
X149980946Y-127731452D01*
X149989067Y-127739572D01*
G37*
G36*
X150054028Y-127788293D02*
G01*
X150045908Y-127796414D01*
X150037788Y-127788293D01*
X150045908Y-127780173D01*
X150054028Y-127788293D01*
G37*
G36*
X150054028Y-128892641D02*
G01*
X150045908Y-128900761D01*
X150037788Y-128892641D01*
X150045908Y-128884521D01*
X150054028Y-128892641D01*
G37*
G36*
X150102749Y-127837015D02*
G01*
X150094629Y-127845135D01*
X150086509Y-127837015D01*
X150094629Y-127828894D01*
X150102749Y-127837015D01*
G37*
G36*
X150151471Y-128925122D02*
G01*
X150143350Y-128933242D01*
X150135230Y-128925122D01*
X150143350Y-128917002D01*
X150151471Y-128925122D01*
G37*
G36*
X150589962Y-128990084D02*
G01*
X150581842Y-128998204D01*
X150573721Y-128990084D01*
X150581842Y-128981963D01*
X150589962Y-128990084D01*
G37*
G36*
X150638683Y-129006324D02*
G01*
X150630563Y-129014444D01*
X150622443Y-129006324D01*
X150630563Y-128998204D01*
X150638683Y-129006324D01*
G37*
G36*
X150703645Y-129022564D02*
G01*
X150695524Y-129030685D01*
X150687404Y-129022564D01*
X150695524Y-129014444D01*
X150703645Y-129022564D01*
G37*
G36*
X150752366Y-129038805D02*
G01*
X150744246Y-129046925D01*
X150736125Y-129038805D01*
X150744246Y-129030685D01*
X150752366Y-129038805D01*
G37*
G36*
X150801087Y-129055045D02*
G01*
X150792967Y-129063165D01*
X150784847Y-129055045D01*
X150792967Y-129046925D01*
X150801087Y-129055045D01*
G37*
G36*
X150849808Y-129071286D02*
G01*
X150841688Y-129079406D01*
X150833568Y-129071286D01*
X150841688Y-129063165D01*
X150849808Y-129071286D01*
G37*
G36*
X150914770Y-129087526D02*
G01*
X150906650Y-129095646D01*
X150898530Y-129087526D01*
X150906650Y-129079406D01*
X150914770Y-129087526D01*
G37*
G36*
X150963491Y-129103766D02*
G01*
X150955371Y-129111887D01*
X150947251Y-129103766D01*
X150955371Y-129095646D01*
X150963491Y-129103766D01*
G37*
G36*
X151028453Y-129120007D02*
G01*
X151020333Y-129128127D01*
X151012212Y-129120007D01*
X151020333Y-129111887D01*
X151028453Y-129120007D01*
G37*
G36*
X151093414Y-124182922D02*
G01*
X151085294Y-124191043D01*
X151077174Y-124182922D01*
X151085294Y-124174802D01*
X151093414Y-124182922D01*
G37*
G36*
X151093414Y-129136247D02*
G01*
X151085294Y-129144367D01*
X151077174Y-129136247D01*
X151085294Y-129128127D01*
X151093414Y-129136247D01*
G37*
G36*
X151174616Y-129152488D02*
G01*
X151166496Y-129160608D01*
X151158376Y-129152488D01*
X151166496Y-129144367D01*
X151174616Y-129152488D01*
G37*
G36*
X151239578Y-124312846D02*
G01*
X151231458Y-124320966D01*
X151223338Y-124312846D01*
X151231458Y-124304726D01*
X151239578Y-124312846D01*
G37*
G36*
X151304540Y-124345327D02*
G01*
X151296420Y-124353447D01*
X151288299Y-124345327D01*
X151296420Y-124337206D01*
X151304540Y-124345327D01*
G37*
G36*
X151337021Y-124361567D02*
G01*
X151328900Y-124369687D01*
X151320780Y-124361567D01*
X151328900Y-124353447D01*
X151337021Y-124361567D01*
G37*
G36*
X151385742Y-124377807D02*
G01*
X151377622Y-124385928D01*
X151369501Y-124377807D01*
X151377622Y-124369687D01*
X151385742Y-124377807D01*
G37*
G36*
X151450703Y-124394048D02*
G01*
X151442583Y-124402168D01*
X151434463Y-124394048D01*
X151442583Y-124385928D01*
X151450703Y-124394048D01*
G37*
G36*
X151645588Y-129168728D02*
G01*
X151637468Y-129176848D01*
X151629348Y-129168728D01*
X151637468Y-129160608D01*
X151645588Y-129168728D01*
G37*
G36*
X151726790Y-129152488D02*
G01*
X151718670Y-129160608D01*
X151710550Y-129152488D01*
X151718670Y-129144367D01*
X151726790Y-129152488D01*
G37*
G36*
X151791752Y-129136247D02*
G01*
X151783632Y-129144367D01*
X151775512Y-129136247D01*
X151783632Y-129128127D01*
X151791752Y-129136247D01*
G37*
G36*
X151840473Y-129120007D02*
G01*
X151832353Y-129128127D01*
X151824233Y-129120007D01*
X151832353Y-129111887D01*
X151840473Y-129120007D01*
G37*
G36*
X151856714Y-124377807D02*
G01*
X151848593Y-124385928D01*
X151840473Y-124377807D01*
X151848593Y-124369687D01*
X151856714Y-124377807D01*
G37*
G36*
X151889194Y-129103766D02*
G01*
X151881074Y-129111887D01*
X151872954Y-129103766D01*
X151881074Y-129095646D01*
X151889194Y-129103766D01*
G37*
G36*
X151970397Y-129071286D02*
G01*
X151962276Y-129079406D01*
X151954156Y-129071286D01*
X151962276Y-129063165D01*
X151970397Y-129071286D01*
G37*
G36*
X151986637Y-124345327D02*
G01*
X151978517Y-124353447D01*
X151970397Y-124345327D01*
X151978517Y-124337206D01*
X151986637Y-124345327D01*
G37*
G36*
X152002877Y-122688805D02*
G01*
X151994757Y-122696925D01*
X151986637Y-122688805D01*
X151994757Y-122680685D01*
X152002877Y-122688805D01*
G37*
G36*
X152002877Y-122867449D02*
G01*
X151994757Y-122875570D01*
X151986637Y-122867449D01*
X151994757Y-122859329D01*
X152002877Y-122867449D01*
G37*
G36*
X152002877Y-129055045D02*
G01*
X151994757Y-129063165D01*
X151986637Y-129055045D01*
X151994757Y-129046925D01*
X152002877Y-129055045D01*
G37*
G36*
X152067839Y-129022564D02*
G01*
X152059719Y-129030685D01*
X152051599Y-129022564D01*
X152059719Y-129014444D01*
X152067839Y-129022564D01*
G37*
G36*
X152100320Y-129006324D02*
G01*
X152092200Y-129014444D01*
X152084079Y-129006324D01*
X152092200Y-128998204D01*
X152100320Y-129006324D01*
G37*
G36*
X152116560Y-124312846D02*
G01*
X152108440Y-124320966D01*
X152100320Y-124312846D01*
X152108440Y-124304726D01*
X152116560Y-124312846D01*
G37*
G36*
X152181522Y-124296605D02*
G01*
X152173402Y-124304726D01*
X152165281Y-124296605D01*
X152173402Y-124288485D01*
X152181522Y-124296605D01*
G37*
G36*
X152181522Y-128957603D02*
G01*
X152173402Y-128965723D01*
X152165281Y-128957603D01*
X152173402Y-128949483D01*
X152181522Y-128957603D01*
G37*
G36*
X152230243Y-124280365D02*
G01*
X152222123Y-124288485D01*
X152214003Y-124280365D01*
X152222123Y-124272245D01*
X152230243Y-124280365D01*
G37*
G36*
X152295205Y-124264125D02*
G01*
X152287085Y-124272245D01*
X152278964Y-124264125D01*
X152287085Y-124256004D01*
X152295205Y-124264125D01*
G37*
G36*
X152327686Y-128860160D02*
G01*
X152319565Y-128868281D01*
X152311445Y-128860160D01*
X152319565Y-128852040D01*
X152327686Y-128860160D01*
G37*
G36*
X152343926Y-124247884D02*
G01*
X152335806Y-124256004D01*
X152327686Y-124247884D01*
X152335806Y-124239764D01*
X152343926Y-124247884D01*
G37*
G36*
X152376407Y-128827679D02*
G01*
X152368287Y-128835800D01*
X152360166Y-128827679D01*
X152368287Y-128819559D01*
X152376407Y-128827679D01*
G37*
G36*
X152392647Y-124231644D02*
G01*
X152384527Y-124239764D01*
X152376407Y-124231644D01*
X152384527Y-124223523D01*
X152392647Y-124231644D01*
G37*
G36*
X152425128Y-128795199D02*
G01*
X152417008Y-128803319D01*
X152408888Y-128795199D01*
X152417008Y-128787078D01*
X152425128Y-128795199D01*
G37*
G36*
X152441368Y-124215403D02*
G01*
X152433248Y-124223523D01*
X152425128Y-124215403D01*
X152433248Y-124207283D01*
X152441368Y-124215403D01*
G37*
G36*
X152506330Y-124199163D02*
G01*
X152498210Y-124207283D01*
X152490090Y-124199163D01*
X152498210Y-124191043D01*
X152506330Y-124199163D01*
G37*
G36*
X152522570Y-128713997D02*
G01*
X152514450Y-128722117D01*
X152506330Y-128713997D01*
X152514450Y-128705876D01*
X152522570Y-128713997D01*
G37*
G36*
X152668734Y-124199163D02*
G01*
X152660614Y-124207283D01*
X152652494Y-124199163D01*
X152660614Y-124191043D01*
X152668734Y-124199163D01*
G37*
G36*
X152684975Y-128259265D02*
G01*
X152676854Y-128267385D01*
X152668734Y-128259265D01*
X152676854Y-128251145D01*
X152684975Y-128259265D01*
G37*
G36*
X152782417Y-128145582D02*
G01*
X152774297Y-128153703D01*
X152766177Y-128145582D01*
X152774297Y-128137462D01*
X152782417Y-128145582D01*
G37*
G36*
X152831138Y-128129342D02*
G01*
X152823018Y-128137462D01*
X152814898Y-128129342D01*
X152823018Y-128121222D01*
X152831138Y-128129342D01*
G37*
G36*
X152879859Y-128113101D02*
G01*
X152871739Y-128121222D01*
X152863619Y-128113101D01*
X152871739Y-128104981D01*
X152879859Y-128113101D01*
G37*
G36*
X152961061Y-128080621D02*
G01*
X152952941Y-128088741D01*
X152944821Y-128080621D01*
X152952941Y-128072500D01*
X152961061Y-128080621D01*
G37*
G36*
X153009783Y-128064380D02*
G01*
X153001663Y-128072500D01*
X152993542Y-128064380D01*
X153001663Y-128056260D01*
X153009783Y-128064380D01*
G37*
G36*
X153058504Y-128048140D02*
G01*
X153050384Y-128056260D01*
X153042264Y-128048140D01*
X153050384Y-128040020D01*
X153058504Y-128048140D01*
G37*
G36*
X153107225Y-128031899D02*
G01*
X153099105Y-128040020D01*
X153090985Y-128031899D01*
X153099105Y-128023779D01*
X153107225Y-128031899D01*
G37*
G36*
X153155946Y-128015659D02*
G01*
X153147826Y-128023779D01*
X153139706Y-128015659D01*
X153147826Y-128007539D01*
X153155946Y-128015659D01*
G37*
G36*
X153204668Y-127999419D02*
G01*
X153196547Y-128007539D01*
X153188427Y-127999419D01*
X153196547Y-127991298D01*
X153204668Y-127999419D01*
G37*
G36*
X153302110Y-127966938D02*
G01*
X153293990Y-127975058D01*
X153285870Y-127966938D01*
X153293990Y-127958818D01*
X153302110Y-127966938D01*
G37*
G36*
X153432033Y-127918217D02*
G01*
X153423913Y-127926337D01*
X153415793Y-127918217D01*
X153423913Y-127910096D01*
X153432033Y-127918217D01*
G37*
G36*
X153496995Y-127901976D02*
G01*
X153488875Y-127910096D01*
X153480755Y-127901976D01*
X153488875Y-127893856D01*
X153496995Y-127901976D01*
G37*
G36*
X153594437Y-127869495D02*
G01*
X153586317Y-127877616D01*
X153578197Y-127869495D01*
X153586317Y-127861375D01*
X153594437Y-127869495D01*
G37*
G36*
X153643159Y-127853255D02*
G01*
X153635038Y-127861375D01*
X153626918Y-127853255D01*
X153635038Y-127845135D01*
X153643159Y-127853255D01*
G37*
G36*
X153691880Y-127837015D02*
G01*
X153683760Y-127845135D01*
X153675639Y-127837015D01*
X153683760Y-127828894D01*
X153691880Y-127837015D01*
G37*
G36*
X153740601Y-127820774D02*
G01*
X153732481Y-127828894D01*
X153724361Y-127820774D01*
X153732481Y-127812654D01*
X153740601Y-127820774D01*
G37*
G36*
X153789322Y-127804534D02*
G01*
X153781202Y-127812654D01*
X153773082Y-127804534D01*
X153781202Y-127796414D01*
X153789322Y-127804534D01*
G37*
G36*
X153838044Y-127788293D02*
G01*
X153829923Y-127796414D01*
X153821803Y-127788293D01*
X153829923Y-127780173D01*
X153838044Y-127788293D01*
G37*
G36*
X153951726Y-127755812D02*
G01*
X153943606Y-127763933D01*
X153935486Y-127755812D01*
X153943606Y-127747692D01*
X153951726Y-127755812D01*
G37*
G36*
X154000448Y-127739572D02*
G01*
X153992327Y-127747692D01*
X153984207Y-127739572D01*
X153992327Y-127731452D01*
X154000448Y-127739572D01*
G37*
G36*
X154049169Y-127723332D02*
G01*
X154041049Y-127731452D01*
X154032928Y-127723332D01*
X154041049Y-127715211D01*
X154049169Y-127723332D01*
G37*
G36*
X154097890Y-127707091D02*
G01*
X154089770Y-127715211D01*
X154081650Y-127707091D01*
X154089770Y-127698971D01*
X154097890Y-127707091D01*
G37*
G36*
X154162852Y-127690851D02*
G01*
X154154732Y-127698971D01*
X154146611Y-127690851D01*
X154154732Y-127682731D01*
X154162852Y-127690851D01*
G37*
G36*
X154211573Y-127674610D02*
G01*
X154203453Y-127682731D01*
X154195333Y-127674610D01*
X154203453Y-127666490D01*
X154211573Y-127674610D01*
G37*
G36*
X154260294Y-127658370D02*
G01*
X154252174Y-127666490D01*
X154244054Y-127658370D01*
X154252174Y-127650250D01*
X154260294Y-127658370D01*
G37*
G36*
X154325256Y-127642130D02*
G01*
X154317136Y-127650250D01*
X154309015Y-127642130D01*
X154317136Y-127634009D01*
X154325256Y-127642130D01*
G37*
G36*
X154373977Y-127625889D02*
G01*
X154365857Y-127634009D01*
X154357737Y-127625889D01*
X154365857Y-127617769D01*
X154373977Y-127625889D01*
G37*
G36*
X154422698Y-127609649D02*
G01*
X154414578Y-127617769D01*
X154406458Y-127609649D01*
X154414578Y-127601529D01*
X154422698Y-127609649D01*
G37*
G36*
X154536381Y-127577168D02*
G01*
X154528261Y-127585288D01*
X154520141Y-127577168D01*
X154528261Y-127569048D01*
X154536381Y-127577168D01*
G37*
G36*
X154585102Y-127560928D02*
G01*
X154576982Y-127569048D01*
X154568862Y-127560928D01*
X154576982Y-127552807D01*
X154585102Y-127560928D01*
G37*
G36*
X154650064Y-127544687D02*
G01*
X154641944Y-127552807D01*
X154633824Y-127544687D01*
X154641944Y-127536567D01*
X154650064Y-127544687D01*
G37*
G36*
X154698785Y-127528447D02*
G01*
X154690665Y-127536567D01*
X154682545Y-127528447D01*
X154690665Y-127520327D01*
X154698785Y-127528447D01*
G37*
G36*
X154763747Y-127512206D02*
G01*
X154755627Y-127520327D01*
X154747506Y-127512206D01*
X154755627Y-127504086D01*
X154763747Y-127512206D01*
G37*
G36*
X154812468Y-127495966D02*
G01*
X154804348Y-127504086D01*
X154796228Y-127495966D01*
X154804348Y-127487846D01*
X154812468Y-127495966D01*
G37*
G36*
X154877430Y-127479726D02*
G01*
X154869310Y-127487846D01*
X154861189Y-127479726D01*
X154869310Y-127471605D01*
X154877430Y-127479726D01*
G37*
G36*
X154926151Y-127463485D02*
G01*
X154918031Y-127471605D01*
X154909911Y-127463485D01*
X154918031Y-127455365D01*
X154926151Y-127463485D01*
G37*
G36*
X154991113Y-127447245D02*
G01*
X154982992Y-127455365D01*
X154974872Y-127447245D01*
X154982992Y-127439125D01*
X154991113Y-127447245D01*
G37*
G36*
X155039834Y-127431004D02*
G01*
X155031714Y-127439125D01*
X155023593Y-127431004D01*
X155031714Y-127422884D01*
X155039834Y-127431004D01*
G37*
G36*
X155104796Y-127414764D02*
G01*
X155096675Y-127422884D01*
X155088555Y-127414764D01*
X155096675Y-127406644D01*
X155104796Y-127414764D01*
G37*
G36*
X155169757Y-127398523D02*
G01*
X155161637Y-127406644D01*
X155153517Y-127398523D01*
X155161637Y-127390403D01*
X155169757Y-127398523D01*
G37*
G36*
X155283440Y-127366043D02*
G01*
X155275320Y-127374163D01*
X155267200Y-127366043D01*
X155275320Y-127357922D01*
X155283440Y-127366043D01*
G37*
G36*
X155348402Y-127349802D02*
G01*
X155340281Y-127357922D01*
X155332161Y-127349802D01*
X155340281Y-127341682D01*
X155348402Y-127349802D01*
G37*
G36*
X155397123Y-127333562D02*
G01*
X155389003Y-127341682D01*
X155380882Y-127333562D01*
X155389003Y-127325442D01*
X155397123Y-127333562D01*
G37*
G36*
X155462085Y-127317321D02*
G01*
X155453964Y-127325442D01*
X155445844Y-127317321D01*
X155453964Y-127309201D01*
X155462085Y-127317321D01*
G37*
G36*
X155527046Y-127301081D02*
G01*
X155518926Y-127309201D01*
X155510806Y-127301081D01*
X155518926Y-127292961D01*
X155527046Y-127301081D01*
G37*
G36*
X155592008Y-127284841D02*
G01*
X155583888Y-127292961D01*
X155575767Y-127284841D01*
X155583888Y-127276720D01*
X155592008Y-127284841D01*
G37*
G36*
X155640729Y-127268600D02*
G01*
X155632609Y-127276720D01*
X155624489Y-127268600D01*
X155632609Y-127260480D01*
X155640729Y-127268600D01*
G37*
G36*
X155705691Y-127252360D02*
G01*
X155697570Y-127260480D01*
X155689450Y-127252360D01*
X155697570Y-127244240D01*
X155705691Y-127252360D01*
G37*
G36*
X155770652Y-127236119D02*
G01*
X155762532Y-127244240D01*
X155754412Y-127236119D01*
X155762532Y-127227999D01*
X155770652Y-127236119D01*
G37*
G36*
X155835614Y-127219879D02*
G01*
X155827494Y-127227999D01*
X155819374Y-127219879D01*
X155827494Y-127211759D01*
X155835614Y-127219879D01*
G37*
G36*
X155884335Y-127203639D02*
G01*
X155876215Y-127211759D01*
X155868095Y-127203639D01*
X155876215Y-127195518D01*
X155884335Y-127203639D01*
G37*
G36*
X156014258Y-127171158D02*
G01*
X156006138Y-127179278D01*
X155998018Y-127171158D01*
X156006138Y-127163038D01*
X156014258Y-127171158D01*
G37*
G36*
X156079220Y-127154917D02*
G01*
X156071100Y-127163038D01*
X156062980Y-127154917D01*
X156071100Y-127146797D01*
X156079220Y-127154917D01*
G37*
G36*
X156144182Y-127138677D02*
G01*
X156136061Y-127146797D01*
X156127941Y-127138677D01*
X156136061Y-127130557D01*
X156144182Y-127138677D01*
G37*
G36*
X156209143Y-123208498D02*
G01*
X156201023Y-123216618D01*
X156192903Y-123208498D01*
X156201023Y-123200378D01*
X156209143Y-123208498D01*
G37*
G36*
X156209143Y-127122437D02*
G01*
X156201023Y-127130557D01*
X156192903Y-127122437D01*
X156201023Y-127114316D01*
X156209143Y-127122437D01*
G37*
G36*
X156274105Y-127106196D02*
G01*
X156265985Y-127114316D01*
X156257865Y-127106196D01*
X156265985Y-127098076D01*
X156274105Y-127106196D01*
G37*
G36*
X156290345Y-123127296D02*
G01*
X156282225Y-123135416D01*
X156274105Y-123127296D01*
X156282225Y-123119176D01*
X156290345Y-123127296D01*
G37*
G36*
X156322826Y-123111055D02*
G01*
X156314706Y-123119176D01*
X156306586Y-123111055D01*
X156314706Y-123102935D01*
X156322826Y-123111055D01*
G37*
G36*
X156339067Y-127089956D02*
G01*
X156330946Y-127098076D01*
X156322826Y-127089956D01*
X156330946Y-127081836D01*
X156339067Y-127089956D01*
G37*
G36*
X156371547Y-123094815D02*
G01*
X156363427Y-123102935D01*
X156355307Y-123094815D01*
X156363427Y-123086695D01*
X156371547Y-123094815D01*
G37*
G36*
X156404028Y-127073715D02*
G01*
X156395908Y-127081836D01*
X156387788Y-127073715D01*
X156395908Y-127065595D01*
X156404028Y-127073715D01*
G37*
G36*
X156452749Y-123062334D02*
G01*
X156444629Y-123070454D01*
X156436509Y-123062334D01*
X156444629Y-123054214D01*
X156452749Y-123062334D01*
G37*
G36*
X156468990Y-127057475D02*
G01*
X156460870Y-127065595D01*
X156452749Y-127057475D01*
X156460870Y-127049355D01*
X156468990Y-127057475D01*
G37*
G36*
X156485230Y-123046094D02*
G01*
X156477110Y-123054214D01*
X156468990Y-123046094D01*
X156477110Y-123037974D01*
X156485230Y-123046094D01*
G37*
G36*
X156501471Y-124199163D02*
G01*
X156493350Y-124207283D01*
X156485230Y-124199163D01*
X156493350Y-124191043D01*
X156501471Y-124199163D01*
G37*
G36*
X156517711Y-123029853D02*
G01*
X156509591Y-123037974D01*
X156501471Y-123029853D01*
X156509591Y-123021733D01*
X156517711Y-123029853D01*
G37*
G36*
X156533952Y-127041234D02*
G01*
X156525831Y-127049355D01*
X156517711Y-127041234D01*
X156525831Y-127033114D01*
X156533952Y-127041234D01*
G37*
G36*
X156550192Y-123013613D02*
G01*
X156542072Y-123021733D01*
X156533952Y-123013613D01*
X156542072Y-123005493D01*
X156550192Y-123013613D01*
G37*
G36*
X156598913Y-127024994D02*
G01*
X156590793Y-127033114D01*
X156582673Y-127024994D01*
X156590793Y-127016874D01*
X156598913Y-127024994D01*
G37*
G36*
X156615154Y-122981132D02*
G01*
X156607033Y-122989252D01*
X156598913Y-122981132D01*
X156607033Y-122973012D01*
X156615154Y-122981132D01*
G37*
G36*
X156647634Y-122964892D02*
G01*
X156639514Y-122973012D01*
X156631394Y-122964892D01*
X156639514Y-122956772D01*
X156647634Y-122964892D01*
G37*
G36*
X156663875Y-127008754D02*
G01*
X156655755Y-127016874D01*
X156647634Y-127008754D01*
X156655755Y-127000633D01*
X156663875Y-127008754D01*
G37*
G36*
X156696356Y-122932411D02*
G01*
X156688235Y-122940531D01*
X156680115Y-122932411D01*
X156688235Y-122924291D01*
X156696356Y-122932411D01*
G37*
G36*
X156728836Y-126992513D02*
G01*
X156720716Y-127000633D01*
X156712596Y-126992513D01*
X156720716Y-126984393D01*
X156728836Y-126992513D01*
G37*
G36*
X156793798Y-126976273D02*
G01*
X156785678Y-126984393D01*
X156777558Y-126976273D01*
X156785678Y-126968153D01*
X156793798Y-126976273D01*
G37*
G36*
X156858760Y-126960032D02*
G01*
X156850639Y-126968153D01*
X156842519Y-126960032D01*
X156850639Y-126951912D01*
X156858760Y-126960032D01*
G37*
G36*
X156923721Y-126943792D02*
G01*
X156915601Y-126951912D01*
X156907481Y-126943792D01*
X156915601Y-126935672D01*
X156923721Y-126943792D01*
G37*
G36*
X156988683Y-126927552D02*
G01*
X156980563Y-126935672D01*
X156972443Y-126927552D01*
X156980563Y-126919431D01*
X156988683Y-126927552D01*
G37*
G36*
X157053645Y-126911311D02*
G01*
X157045524Y-126919431D01*
X157037404Y-126911311D01*
X157045524Y-126903191D01*
X157053645Y-126911311D01*
G37*
G36*
X157118606Y-126895071D02*
G01*
X157110486Y-126903191D01*
X157102366Y-126895071D01*
X157110486Y-126886951D01*
X157118606Y-126895071D01*
G37*
G36*
X157183568Y-126878830D02*
G01*
X157175448Y-126886951D01*
X157167327Y-126878830D01*
X157175448Y-126870710D01*
X157183568Y-126878830D01*
G37*
G36*
X157248530Y-126862590D02*
G01*
X157240409Y-126870710D01*
X157232289Y-126862590D01*
X157240409Y-126854470D01*
X157248530Y-126862590D01*
G37*
G36*
X157313491Y-126846350D02*
G01*
X157305371Y-126854470D01*
X157297251Y-126846350D01*
X157305371Y-126838229D01*
X157313491Y-126846350D01*
G37*
G36*
X157378453Y-126830109D02*
G01*
X157370333Y-126838229D01*
X157362212Y-126830109D01*
X157370333Y-126821989D01*
X157378453Y-126830109D01*
G37*
G36*
X157443414Y-126813869D02*
G01*
X157435294Y-126821989D01*
X157427174Y-126813869D01*
X157435294Y-126805749D01*
X157443414Y-126813869D01*
G37*
G36*
X157524616Y-126797628D02*
G01*
X157516496Y-126805749D01*
X157508376Y-126797628D01*
X157516496Y-126789508D01*
X157524616Y-126797628D01*
G37*
G36*
X157573338Y-126781388D02*
G01*
X157565217Y-126789508D01*
X157557097Y-126781388D01*
X157565217Y-126773268D01*
X157573338Y-126781388D01*
G37*
G36*
X157654540Y-126765148D02*
G01*
X157646420Y-126773268D01*
X157638299Y-126765148D01*
X157646420Y-126757027D01*
X157654540Y-126765148D01*
G37*
G36*
X157719501Y-126748907D02*
G01*
X157711381Y-126757027D01*
X157703261Y-126748907D01*
X157711381Y-126740787D01*
X157719501Y-126748907D01*
G37*
G36*
X157784463Y-126732667D02*
G01*
X157776343Y-126740787D01*
X157768223Y-126732667D01*
X157776343Y-126724546D01*
X157784463Y-126732667D01*
G37*
G36*
X157833184Y-126716426D02*
G01*
X157825064Y-126724546D01*
X157816944Y-126716426D01*
X157825064Y-126708306D01*
X157833184Y-126716426D01*
G37*
G36*
X157898146Y-126700186D02*
G01*
X157890026Y-126708306D01*
X157881905Y-126700186D01*
X157890026Y-126692066D01*
X157898146Y-126700186D01*
G37*
G36*
X158028069Y-126651465D02*
G01*
X158019949Y-126659585D01*
X158011829Y-126651465D01*
X158019949Y-126643344D01*
X158028069Y-126651465D01*
G37*
G36*
X158060550Y-126635224D02*
G01*
X158052430Y-126643344D01*
X158044310Y-126635224D01*
X158052430Y-126627104D01*
X158060550Y-126635224D01*
G37*
G36*
X158222954Y-126554022D02*
G01*
X158214834Y-126562142D01*
X158206714Y-126554022D01*
X158214834Y-126545902D01*
X158222954Y-126554022D01*
G37*
G36*
X150293236Y-128939671D02*
G01*
X150288392Y-128947052D01*
X150271920Y-128948200D01*
X150254591Y-128944234D01*
X150262108Y-128938389D01*
X150287490Y-128936452D01*
X150293236Y-128939671D01*
G37*
G36*
X150438385Y-128954896D02*
G01*
X150436155Y-128964551D01*
X150427558Y-128965723D01*
X150414190Y-128959781D01*
X150416731Y-128954896D01*
X150436004Y-128952952D01*
X150438385Y-128954896D01*
G37*
G36*
X150519587Y-128971136D02*
G01*
X150517357Y-128980791D01*
X150508760Y-128981963D01*
X150495392Y-128976021D01*
X150497933Y-128971136D01*
X150517206Y-128969193D01*
X150519587Y-128971136D01*
G37*
G36*
X151266645Y-129166021D02*
G01*
X151264416Y-129175676D01*
X151255819Y-129176848D01*
X151242451Y-129170906D01*
X151244992Y-129166021D01*
X151264265Y-129164078D01*
X151266645Y-129166021D01*
G37*
G36*
X151770098Y-124391341D02*
G01*
X151767869Y-124400996D01*
X151759271Y-124402168D01*
X151745904Y-124396226D01*
X151748444Y-124391341D01*
X151767718Y-124389397D01*
X151770098Y-124391341D01*
G37*
G36*
X151932502Y-124358860D02*
G01*
X151930273Y-124368515D01*
X151921675Y-124369687D01*
X151908308Y-124363745D01*
X151910848Y-124358860D01*
X151930122Y-124356917D01*
X151932502Y-124358860D01*
G37*
G36*
X152062426Y-124326379D02*
G01*
X152060196Y-124336034D01*
X152051599Y-124337206D01*
X152038231Y-124331264D01*
X152040772Y-124326379D01*
X152060045Y-124324436D01*
X152062426Y-124326379D01*
G37*
G36*
X152565878Y-124180216D02*
G01*
X152563649Y-124189871D01*
X152555051Y-124191043D01*
X152541684Y-124185101D01*
X152544224Y-124180216D01*
X152563498Y-124178272D01*
X152565878Y-124180216D01*
G37*
G36*
X152630840Y-124180216D02*
G01*
X152628611Y-124189871D01*
X152620013Y-124191043D01*
X152606645Y-124185101D01*
X152609186Y-124180216D01*
X152628460Y-124178272D01*
X152630840Y-124180216D01*
G37*
G36*
X152679561Y-128337760D02*
G01*
X152681505Y-128357034D01*
X152679561Y-128359414D01*
X152669906Y-128357185D01*
X152668734Y-128348587D01*
X152674676Y-128335220D01*
X152679561Y-128337760D01*
G37*
G36*
X155229305Y-127379576D02*
G01*
X155227076Y-127389231D01*
X155218478Y-127390403D01*
X155205111Y-127384461D01*
X155207651Y-127379576D01*
X155226925Y-127377633D01*
X155229305Y-127379576D01*
G37*
G36*
X155960124Y-127184691D02*
G01*
X155957894Y-127194346D01*
X155949297Y-127195518D01*
X155935929Y-127189576D01*
X155938470Y-127184691D01*
X155957743Y-127182748D01*
X155960124Y-127184691D01*
G37*
G36*
X149288220Y-127202088D02*
G01*
X149305518Y-127217185D01*
X149306969Y-127220837D01*
X149299262Y-127227512D01*
X149283216Y-127212555D01*
X149281058Y-127209249D01*
X149279144Y-127198136D01*
X149288220Y-127202088D01*
G37*
G36*
X152698706Y-124230093D02*
G01*
X152716140Y-124246445D01*
X152712564Y-124255846D01*
X152710294Y-124256004D01*
X152696557Y-124244469D01*
X152691544Y-124237255D01*
X152689630Y-124226141D01*
X152698706Y-124230093D01*
G37*
G36*
X149347984Y-127265577D02*
G01*
X149359751Y-127274649D01*
X149382243Y-127294683D01*
X149388171Y-127303070D01*
X149380272Y-127307931D01*
X149358682Y-127287068D01*
X149353619Y-127280781D01*
X149339574Y-127261544D01*
X149347984Y-127265577D01*
G37*
G36*
X152582437Y-128651405D02*
G01*
X152579412Y-128657155D01*
X152564110Y-128672665D01*
X152561255Y-128673396D01*
X152560146Y-128662905D01*
X152563171Y-128657155D01*
X152578473Y-128641646D01*
X152581329Y-128640915D01*
X152582437Y-128651405D01*
G37*
G36*
X152728599Y-128178476D02*
G01*
X152719527Y-128190243D01*
X152695822Y-128215492D01*
X152685241Y-128215382D01*
X152684975Y-128212532D01*
X152696073Y-128198976D01*
X152713395Y-128184112D01*
X152732632Y-128170066D01*
X152728599Y-128178476D01*
G37*
G36*
X156252768Y-123143949D02*
G01*
X156243696Y-123155717D01*
X156219991Y-123180965D01*
X156209410Y-123180855D01*
X156209143Y-123178006D01*
X156220242Y-123164449D01*
X156237564Y-123149585D01*
X156256801Y-123135539D01*
X156252768Y-123143949D01*
G37*
G36*
X151608411Y-128508426D02*
G01*
X151613108Y-128533322D01*
X151616381Y-128577731D01*
X151623496Y-128623836D01*
X151634153Y-128658996D01*
X151651800Y-128669368D01*
X151671222Y-128666407D01*
X151700712Y-128665764D01*
X151720023Y-128675429D01*
X151721150Y-128688763D01*
X151707519Y-128696514D01*
X151649920Y-128711182D01*
X151608353Y-128715280D01*
X151590944Y-128709432D01*
X151585079Y-128687586D01*
X151577762Y-128643600D01*
X151571611Y-128595689D01*
X151566407Y-128539984D01*
X151567460Y-128509315D01*
X151575817Y-128496657D01*
X151586649Y-128494751D01*
X151608411Y-128508426D01*
G37*
G36*
X151485897Y-128499807D02*
G01*
X151491541Y-128502871D01*
X151514281Y-128525989D01*
X151510337Y-128545063D01*
X151487371Y-128551421D01*
X151461616Y-128565269D01*
X151451716Y-128602434D01*
X151457695Y-128650320D01*
X151475879Y-128681627D01*
X151509208Y-128689636D01*
X151539560Y-128695725D01*
X151544079Y-128709655D01*
X151526068Y-128724921D01*
X151488835Y-128735020D01*
X151485983Y-128735327D01*
X151447277Y-128734115D01*
X151426104Y-128715308D01*
X151418212Y-128697729D01*
X151402850Y-128623496D01*
X151414100Y-128557592D01*
X151433446Y-128524971D01*
X151461317Y-128499343D01*
X151485897Y-128499807D01*
G37*
G36*
X151075507Y-128382106D02*
G01*
X151084283Y-128390498D01*
X151101327Y-128419642D01*
X151091847Y-128438096D01*
X151060215Y-128437676D01*
X151059239Y-128437372D01*
X151035123Y-128437301D01*
X151015701Y-128459437D01*
X151003764Y-128484911D01*
X150983788Y-128543731D01*
X150983503Y-128580871D01*
X151003219Y-128600714D01*
X151012212Y-128603728D01*
X151038594Y-128619300D01*
X151044693Y-128632951D01*
X151032616Y-128656995D01*
X151002826Y-128662051D01*
X150964986Y-128646613D01*
X150963527Y-128645608D01*
X150942734Y-128626819D01*
X150933313Y-128601827D01*
X150932675Y-128560247D01*
X150934806Y-128530399D01*
X150943067Y-128471372D01*
X150958986Y-128432516D01*
X150986262Y-128402677D01*
X151024244Y-128373705D01*
X151050534Y-128367278D01*
X151075507Y-128382106D01*
G37*
G36*
X151827095Y-128457030D02*
G01*
X151842242Y-128484939D01*
X151852057Y-128528544D01*
X151853640Y-128579454D01*
X151853557Y-128580634D01*
X151847811Y-128624645D01*
X151834985Y-128645781D01*
X151808935Y-128653633D01*
X151806602Y-128653916D01*
X151768539Y-128650165D01*
X151747389Y-128637676D01*
X151731195Y-128607395D01*
X151715989Y-128563185D01*
X151705162Y-128517758D01*
X151702108Y-128483823D01*
X151704161Y-128475710D01*
X151720213Y-128467199D01*
X151737558Y-128490154D01*
X151755524Y-128543618D01*
X151757508Y-128551316D01*
X151775069Y-128603676D01*
X151791145Y-128624166D01*
X151802552Y-128613353D01*
X151806108Y-128571804D01*
X151804276Y-128542986D01*
X151802155Y-128494757D01*
X151805377Y-128461451D01*
X151809515Y-128453209D01*
X151827095Y-128457030D01*
G37*
G36*
X150882149Y-128325585D02*
G01*
X150888160Y-128380215D01*
X150888347Y-128423563D01*
X150881523Y-128514645D01*
X150864929Y-128575221D01*
X150838639Y-128605075D01*
X150823116Y-128608434D01*
X150805662Y-128600201D01*
X150806988Y-128570989D01*
X150807756Y-128567833D01*
X150809733Y-128536094D01*
X150792652Y-128528961D01*
X150755224Y-128546146D01*
X150743674Y-128553460D01*
X150714377Y-128567698D01*
X150703716Y-128559265D01*
X150711871Y-128527235D01*
X150739020Y-128470678D01*
X150757002Y-128438374D01*
X150810202Y-128438374D01*
X150818766Y-128458139D01*
X150834526Y-128462270D01*
X150846700Y-128448578D01*
X150849808Y-128427801D01*
X150846225Y-128404358D01*
X150831061Y-128409071D01*
X150825626Y-128413401D01*
X150810202Y-128438374D01*
X150757002Y-128438374D01*
X150770488Y-128414147D01*
X150813115Y-128346070D01*
X150845411Y-128308576D01*
X150868161Y-128301727D01*
X150882149Y-128325585D01*
G37*
G36*
X150556578Y-128242099D02*
G01*
X150571023Y-128274974D01*
X150573721Y-128300117D01*
X150582404Y-128341119D01*
X150603758Y-128354824D01*
X150630744Y-128339752D01*
X150647092Y-128315548D01*
X150673200Y-128280014D01*
X150698330Y-128268292D01*
X150715797Y-128281344D01*
X150719885Y-128305093D01*
X150714195Y-128345168D01*
X150699851Y-128400354D01*
X150680940Y-128457778D01*
X150661551Y-128504567D01*
X150650633Y-128523172D01*
X150622972Y-128541525D01*
X150611598Y-128543472D01*
X150596826Y-128535058D01*
X150596028Y-128505376D01*
X150598728Y-128488899D01*
X150598350Y-128442519D01*
X150580179Y-128419817D01*
X150550865Y-128423802D01*
X150520026Y-128453271D01*
X150491594Y-128481898D01*
X150464055Y-128494664D01*
X150446269Y-128488664D01*
X150443798Y-128478265D01*
X150448447Y-128448249D01*
X150460284Y-128399721D01*
X150476146Y-128343508D01*
X150492870Y-128290438D01*
X150507292Y-128251341D01*
X150513767Y-128238764D01*
X150535328Y-128227813D01*
X150556578Y-128242099D01*
G37*
G36*
X151974333Y-128405326D02*
G01*
X151994206Y-128428128D01*
X151995673Y-128437910D01*
X152004188Y-128477962D01*
X152016346Y-128506559D01*
X152027036Y-128537066D01*
X152015162Y-128562808D01*
X152003250Y-128575581D01*
X151963226Y-128605734D01*
X151931933Y-128605829D01*
X151907749Y-128575109D01*
X151899910Y-128550338D01*
X151943178Y-128550338D01*
X151960923Y-128559713D01*
X151983295Y-128546637D01*
X151986637Y-128533999D01*
X151977194Y-128515058D01*
X151967351Y-128514713D01*
X151945905Y-128530878D01*
X151943178Y-128550338D01*
X151899910Y-128550338D01*
X151891384Y-128523393D01*
X151881047Y-128472786D01*
X151880824Y-128462270D01*
X151921675Y-128462270D01*
X151934034Y-128478039D01*
X151937916Y-128478511D01*
X151953684Y-128466152D01*
X151954156Y-128462270D01*
X151941798Y-128446502D01*
X151937916Y-128446030D01*
X151922147Y-128458388D01*
X151921675Y-128462270D01*
X151880824Y-128462270D01*
X151880426Y-128443526D01*
X151890389Y-128425705D01*
X151900657Y-128417217D01*
X151939604Y-128400917D01*
X151974333Y-128405326D01*
G37*
G36*
X151181974Y-128429161D02*
G01*
X151182929Y-128429949D01*
X151201730Y-128460913D01*
X151207097Y-128491137D01*
X151209135Y-128519470D01*
X151220547Y-128519169D01*
X151236797Y-128505388D01*
X151263585Y-128484721D01*
X151277398Y-128478511D01*
X151288279Y-128489817D01*
X151283915Y-128514924D01*
X151267088Y-128540616D01*
X151263672Y-128543693D01*
X151248632Y-128566719D01*
X151245747Y-128606081D01*
X151249248Y-128641043D01*
X151251626Y-128692438D01*
X151244765Y-128724380D01*
X151231498Y-128733068D01*
X151214653Y-128714703D01*
X151207067Y-128697676D01*
X151194887Y-128657674D01*
X151190857Y-128631737D01*
X151183525Y-128610441D01*
X151168005Y-128613870D01*
X151154010Y-128639648D01*
X151153692Y-128640833D01*
X151136251Y-128669565D01*
X151109000Y-128687184D01*
X151084662Y-128685957D01*
X151082468Y-128684103D01*
X151082595Y-128664788D01*
X151094859Y-128628826D01*
X151099555Y-128618431D01*
X151120655Y-128564325D01*
X151135183Y-128510372D01*
X151135567Y-128508228D01*
X151145947Y-128453536D01*
X151154993Y-128425678D01*
X151165928Y-128419328D01*
X151181974Y-128429161D01*
G37*
G36*
X151719812Y-127493881D02*
G01*
X151786659Y-127518196D01*
X151833092Y-127560543D01*
X151855327Y-127619308D01*
X151856714Y-127640645D01*
X151848694Y-127672006D01*
X151822053Y-127698006D01*
X151772921Y-127720693D01*
X151697425Y-127742115D01*
X151641611Y-127754441D01*
X151578675Y-127767593D01*
X151539131Y-127775113D01*
X151514405Y-127777114D01*
X151495919Y-127773710D01*
X151475097Y-127765013D01*
X151456952Y-127756881D01*
X151411498Y-127721629D01*
X151391959Y-127670797D01*
X151394097Y-127656087D01*
X151435999Y-127656087D01*
X151440452Y-127677303D01*
X151463629Y-127699103D01*
X151486623Y-127716096D01*
X151506707Y-127720390D01*
X151534597Y-127711040D01*
X151577312Y-127689066D01*
X151648840Y-127659699D01*
X151717697Y-127652406D01*
X151726674Y-127652829D01*
X151780170Y-127649462D01*
X151805242Y-127632345D01*
X151800880Y-127603258D01*
X151773356Y-127570525D01*
X151723984Y-127544459D01*
X151658677Y-127535919D01*
X151587704Y-127543239D01*
X151521333Y-127564751D01*
X151469832Y-127598789D01*
X151451251Y-127622814D01*
X151435999Y-127656087D01*
X151394097Y-127656087D01*
X151400092Y-127614836D01*
X151437133Y-127558699D01*
X151500019Y-127519288D01*
X151540026Y-127505791D01*
X151636339Y-127489208D01*
X151719812Y-127493881D01*
G37*
G36*
X151892601Y-126472675D02*
G01*
X151934519Y-126493774D01*
X151988721Y-126523755D01*
X152048056Y-126558377D01*
X152105375Y-126593399D01*
X152153527Y-126624579D01*
X152185363Y-126647676D01*
X152194166Y-126656917D01*
X152182396Y-126668926D01*
X152147465Y-126690975D01*
X152095847Y-126719808D01*
X152034019Y-126752171D01*
X151968454Y-126784809D01*
X151905628Y-126814467D01*
X151852016Y-126837891D01*
X151814092Y-126851825D01*
X151801545Y-126854277D01*
X151781495Y-126844799D01*
X151742840Y-126819580D01*
X151692341Y-126783166D01*
X151665889Y-126763054D01*
X151614163Y-126721651D01*
X151574010Y-126686822D01*
X151551220Y-126663724D01*
X151549950Y-126661448D01*
X151629547Y-126661448D01*
X151640896Y-126674040D01*
X151669764Y-126700068D01*
X151708164Y-126732858D01*
X151748108Y-126765736D01*
X151781609Y-126792027D01*
X151800679Y-126805056D01*
X151801903Y-126805471D01*
X151816487Y-126799196D01*
X151854429Y-126781984D01*
X151909643Y-126756614D01*
X151963668Y-126731611D01*
X152123402Y-126657473D01*
X151997432Y-126584462D01*
X151871462Y-126511450D01*
X151750604Y-126581458D01*
X151696049Y-126614127D01*
X151654250Y-126641191D01*
X151631712Y-126658351D01*
X151629547Y-126661448D01*
X151549950Y-126661448D01*
X151548146Y-126658216D01*
X151561235Y-126645195D01*
X151595906Y-126620697D01*
X151645263Y-126588867D01*
X151702409Y-126553849D01*
X151760449Y-126519787D01*
X151812488Y-126490827D01*
X151851629Y-126471112D01*
X151870117Y-126464700D01*
X151892601Y-126472675D01*
G37*
G36*
X150164897Y-126422386D02*
G01*
X150198234Y-126431408D01*
X150246546Y-126464597D01*
X150269801Y-126509604D01*
X150270643Y-126561289D01*
X150251716Y-126614508D01*
X150215664Y-126664123D01*
X150165131Y-126704990D01*
X150102763Y-126731970D01*
X150039446Y-126740137D01*
X149983410Y-126734647D01*
X149933948Y-126721712D01*
X149922287Y-126716432D01*
X149875655Y-126674695D01*
X149851803Y-126618424D01*
X149851362Y-126574574D01*
X149894815Y-126574574D01*
X149908531Y-126625282D01*
X149914744Y-126635610D01*
X149941444Y-126676359D01*
X149943411Y-126674078D01*
X150012685Y-126674078D01*
X150013931Y-126676640D01*
X150040143Y-126690670D01*
X150084386Y-126686998D01*
X150136568Y-126667013D01*
X150169831Y-126643253D01*
X150172770Y-126625628D01*
X150147490Y-126618409D01*
X150114300Y-126621803D01*
X150056686Y-126636953D01*
X150021221Y-126655248D01*
X150012685Y-126674078D01*
X149943411Y-126674078D01*
X149977436Y-126634628D01*
X150021518Y-126601041D01*
X150080605Y-126577886D01*
X150084317Y-126577018D01*
X150134957Y-126569282D01*
X150176496Y-126569013D01*
X150185900Y-126570881D01*
X150215113Y-126569352D01*
X150227772Y-126547838D01*
X150221102Y-126515769D01*
X150207765Y-126496576D01*
X150175313Y-126474469D01*
X150124986Y-126465353D01*
X150099711Y-126464700D01*
X150015287Y-126472899D01*
X149951075Y-126495719D01*
X149909957Y-126530499D01*
X149894815Y-126574574D01*
X149851362Y-126574574D01*
X149851182Y-126556675D01*
X149874242Y-126498504D01*
X149909572Y-126460978D01*
X149957902Y-126438557D01*
X150025177Y-126423770D01*
X150098481Y-126417938D01*
X150164897Y-126422386D01*
G37*
G36*
X150692279Y-128098806D02*
G01*
X150848380Y-128132976D01*
X151023010Y-128193813D01*
X151103720Y-128228138D01*
X151216862Y-128276341D01*
X151310866Y-128310249D01*
X151394570Y-128332069D01*
X151476813Y-128344007D01*
X151566434Y-128348270D01*
X151585541Y-128348395D01*
X151764829Y-128335461D01*
X151942579Y-128295122D01*
X152091555Y-128240834D01*
X152152723Y-128216001D01*
X152203713Y-128197066D01*
X152236252Y-128187036D01*
X152241930Y-128186183D01*
X152260250Y-128197831D01*
X152257743Y-128230254D01*
X152234845Y-128279671D01*
X152230304Y-128287293D01*
X152209302Y-128324631D01*
X152198296Y-128349837D01*
X152197823Y-128352648D01*
X152212257Y-128360140D01*
X152248627Y-128364581D01*
X152266784Y-128365077D01*
X152330720Y-128370968D01*
X152366715Y-128387571D01*
X152373237Y-128414118D01*
X152371984Y-128417890D01*
X152353317Y-128440863D01*
X152312495Y-128477049D01*
X152254952Y-128522521D01*
X152186123Y-128573354D01*
X152111442Y-128625619D01*
X152036344Y-128675389D01*
X151966264Y-128718738D01*
X151918364Y-128745680D01*
X151809865Y-128799058D01*
X151716022Y-128834965D01*
X151626094Y-128856181D01*
X151529341Y-128865484D01*
X151451816Y-128866397D01*
X151380505Y-128864923D01*
X151318770Y-128862541D01*
X151275738Y-128859653D01*
X151263939Y-128858117D01*
X151229998Y-128851467D01*
X151178125Y-128841341D01*
X151142136Y-128834329D01*
X151095706Y-128823517D01*
X151025966Y-128805050D01*
X150940579Y-128781058D01*
X150847207Y-128753671D01*
X150792967Y-128737241D01*
X150660683Y-128697558D01*
X150553981Y-128667809D01*
X150467881Y-128646927D01*
X150397402Y-128633851D01*
X150337565Y-128627514D01*
X150283388Y-128626853D01*
X150277521Y-128627082D01*
X150229766Y-128626840D01*
X150196470Y-128622370D01*
X150189069Y-128618965D01*
X150188270Y-128598293D01*
X150198090Y-128554360D01*
X150198158Y-128554135D01*
X150265154Y-128554135D01*
X150279521Y-128557790D01*
X150315139Y-128559854D01*
X150326055Y-128559995D01*
X150403181Y-128566749D01*
X150505067Y-128586632D01*
X150633146Y-128619981D01*
X150788846Y-128667133D01*
X150809207Y-128673655D01*
X151022316Y-128736172D01*
X151211388Y-128778564D01*
X151377765Y-128800978D01*
X151522790Y-128803559D01*
X151647805Y-128786453D01*
X151702881Y-128770683D01*
X151839541Y-128712815D01*
X151985122Y-128631281D01*
X152131990Y-128530358D01*
X152132801Y-128529747D01*
X152254604Y-128437910D01*
X152189642Y-128432764D01*
X152135852Y-128424770D01*
X152110749Y-128408771D01*
X152110729Y-128380267D01*
X152123715Y-128350453D01*
X152139023Y-128317201D01*
X152143075Y-128300373D01*
X152142262Y-128299866D01*
X152124600Y-128304754D01*
X152083216Y-128317912D01*
X152025116Y-128337079D01*
X151983501Y-128351082D01*
X151894994Y-128378379D01*
X151815293Y-128395694D01*
X151729095Y-128405795D01*
X151657656Y-128410014D01*
X151537761Y-128411853D01*
X151434019Y-128404351D01*
X151335919Y-128385406D01*
X151232952Y-128352913D01*
X151114609Y-128304769D01*
X151100165Y-128298411D01*
X150935362Y-128231963D01*
X150787327Y-128185669D01*
X150657937Y-128159908D01*
X150549074Y-128155060D01*
X150465603Y-128170437D01*
X150430180Y-128191663D01*
X150397540Y-128232829D01*
X150371802Y-128280059D01*
X150349141Y-128329262D01*
X150324000Y-128388757D01*
X150299756Y-128449865D01*
X150279786Y-128503907D01*
X150267468Y-128542204D01*
X150265154Y-128554135D01*
X150198158Y-128554135D01*
X150216307Y-128493736D01*
X150240698Y-128422994D01*
X150269039Y-128348707D01*
X150299109Y-128277446D01*
X150318907Y-128235089D01*
X150348561Y-128178382D01*
X150373167Y-128143882D01*
X150400055Y-128123767D01*
X150435678Y-128110474D01*
X150554711Y-128091305D01*
X150692279Y-128098806D01*
G37*
G36*
X150352382Y-126737783D02*
G01*
X150394121Y-126766835D01*
X150437394Y-126795594D01*
X150475411Y-126800737D01*
X150486211Y-126798625D01*
X150508827Y-126796729D01*
X150537604Y-126802557D01*
X150575820Y-126817849D01*
X150626756Y-126844347D01*
X150693690Y-126883792D01*
X150779901Y-126937923D01*
X150888669Y-127008482D01*
X150918902Y-127028322D01*
X151012405Y-127090324D01*
X151081881Y-127138129D01*
X151130814Y-127174807D01*
X151162689Y-127203425D01*
X151180992Y-127227054D01*
X151189205Y-127248763D01*
X151190857Y-127267840D01*
X151197749Y-127296361D01*
X151223207Y-127319540D01*
X151262569Y-127339403D01*
X151326038Y-127376370D01*
X151365265Y-127418546D01*
X151377261Y-127461837D01*
X151370084Y-127486757D01*
X151345633Y-127512984D01*
X151308461Y-127517260D01*
X151252865Y-127500039D01*
X151244991Y-127496683D01*
X151196328Y-127469001D01*
X151156366Y-127437114D01*
X151112737Y-127408664D01*
X151063760Y-127404691D01*
X151038589Y-127403679D01*
X151007390Y-127395153D01*
X150977225Y-127381998D01*
X151190882Y-127381998D01*
X151198194Y-127401830D01*
X151226816Y-127428145D01*
X151243638Y-127439303D01*
X151292409Y-127464575D01*
X151321640Y-127469864D01*
X151328863Y-127454952D01*
X151326423Y-127446644D01*
X151305367Y-127422215D01*
X151267714Y-127396435D01*
X151227745Y-127378035D01*
X151207904Y-127374163D01*
X151190882Y-127381998D01*
X150977225Y-127381998D01*
X150965727Y-127376984D01*
X150909165Y-127347048D01*
X150833269Y-127303215D01*
X150822061Y-127296502D01*
X150931620Y-127296502D01*
X150944319Y-127312202D01*
X150975411Y-127331914D01*
X151012591Y-127349047D01*
X151043550Y-127357012D01*
X151044693Y-127357050D01*
X151079801Y-127353295D01*
X151105595Y-127347686D01*
X151136299Y-127326616D01*
X151143802Y-127291250D01*
X151128962Y-127249114D01*
X151092635Y-127207736D01*
X151089354Y-127205097D01*
X151036573Y-127163600D01*
X150984401Y-127224220D01*
X150953991Y-127261605D01*
X150934879Y-127289032D01*
X150931620Y-127296502D01*
X150822061Y-127296502D01*
X150757495Y-127257831D01*
X150642684Y-127187260D01*
X150553476Y-127129388D01*
X150517557Y-127103707D01*
X150654809Y-127103707D01*
X150658319Y-127128929D01*
X150684730Y-127154784D01*
X150736030Y-127188535D01*
X150756474Y-127201226D01*
X150874169Y-127274210D01*
X150926950Y-127215918D01*
X150957975Y-127178208D01*
X150976953Y-127148501D01*
X150979732Y-127139707D01*
X150966788Y-127123524D01*
X150932313Y-127096023D01*
X150882835Y-127062244D01*
X150863623Y-127050142D01*
X150747515Y-126978495D01*
X150708537Y-127026105D01*
X150672211Y-127071854D01*
X150654809Y-127103707D01*
X150517557Y-127103707D01*
X150486776Y-127081699D01*
X150459202Y-127058358D01*
X150555559Y-127058358D01*
X150560232Y-127077030D01*
X150573384Y-127091824D01*
X150584617Y-127094079D01*
X150600824Y-127079923D01*
X150628897Y-127045482D01*
X150638934Y-127032797D01*
X150673684Y-126979626D01*
X150680623Y-126942919D01*
X150679514Y-126939415D01*
X150670009Y-126927355D01*
X150653912Y-126933375D01*
X150626033Y-126960583D01*
X150605579Y-126983648D01*
X150569645Y-127028902D01*
X150555559Y-127058358D01*
X150459202Y-127058358D01*
X150439492Y-127041674D01*
X150408531Y-127006795D01*
X150390798Y-126974544D01*
X150385075Y-126954685D01*
X150374931Y-126934390D01*
X150433291Y-126934390D01*
X150456813Y-126984530D01*
X150461048Y-126990108D01*
X150495982Y-127034520D01*
X150550416Y-126972915D01*
X150581774Y-126935423D01*
X150601777Y-126907667D01*
X150605526Y-126899548D01*
X150593142Y-126884750D01*
X150562235Y-126865058D01*
X150560415Y-126864107D01*
X150520094Y-126849354D01*
X150485113Y-126855440D01*
X150475152Y-126860036D01*
X150439534Y-126891688D01*
X150433291Y-126934390D01*
X150374931Y-126934390D01*
X150359919Y-126904354D01*
X150312033Y-126863299D01*
X150265139Y-126822392D01*
X150249912Y-126783658D01*
X150297634Y-126783658D01*
X150310599Y-126803137D01*
X150339978Y-126823855D01*
X150371497Y-126836404D01*
X150378836Y-126837173D01*
X150388627Y-126830708D01*
X150370836Y-126810310D01*
X150364857Y-126805208D01*
X150327720Y-126779675D01*
X150303675Y-126773928D01*
X150297634Y-126783658D01*
X150249912Y-126783658D01*
X150249687Y-126783085D01*
X150266069Y-126746454D01*
X150268402Y-126744035D01*
X150305833Y-126725817D01*
X150352382Y-126737783D01*
G37*
G36*
X153427596Y-121374950D02*
G01*
X153605716Y-121410998D01*
X153765275Y-121471963D01*
X153908161Y-121558513D01*
X154000305Y-121635653D01*
X154100102Y-121743595D01*
X154178370Y-121860376D01*
X154237204Y-121990934D01*
X154278696Y-122140207D01*
X154304941Y-122313133D01*
X154309756Y-122365389D01*
X154319025Y-122466989D01*
X154328653Y-122539963D01*
X154339914Y-122588152D01*
X154354087Y-122615398D01*
X154372446Y-122625541D01*
X154395267Y-122622733D01*
X154421001Y-122613837D01*
X154474154Y-122594430D01*
X154555118Y-122564363D01*
X154664286Y-122523491D01*
X154802052Y-122471664D01*
X154968809Y-122408735D01*
X155164949Y-122334556D01*
X155390865Y-122248981D01*
X155495490Y-122209315D01*
X155675465Y-122141931D01*
X155827875Y-122086848D01*
X155954934Y-122043399D01*
X156058855Y-122010917D01*
X156141852Y-121988736D01*
X156206141Y-121976187D01*
X156253934Y-121972605D01*
X156275255Y-121974421D01*
X156352913Y-122003421D01*
X156420028Y-122060227D01*
X156473887Y-122141122D01*
X156511780Y-122242390D01*
X156526808Y-122319205D01*
X156530703Y-122376400D01*
X156530868Y-122451271D01*
X156527335Y-122529229D01*
X156526314Y-122542401D01*
X156514703Y-122681791D01*
X156406584Y-122735863D01*
X156285235Y-122790140D01*
X156134972Y-122846557D01*
X155959217Y-122904157D01*
X155761387Y-122961982D01*
X155544904Y-123019077D01*
X155313187Y-123074483D01*
X155069655Y-123127245D01*
X154861189Y-123168307D01*
X154785754Y-123182682D01*
X154721237Y-123195318D01*
X154674823Y-123204783D01*
X154654238Y-123209478D01*
X154647810Y-123224091D01*
X154664006Y-123258673D01*
X154675896Y-123276966D01*
X154718141Y-123347640D01*
X154767978Y-123445808D01*
X154823846Y-123567798D01*
X154884184Y-123709940D01*
X154947431Y-123868562D01*
X155012027Y-124039992D01*
X155073581Y-124212405D01*
X155128983Y-124371811D01*
X155185911Y-124361841D01*
X155351314Y-124316930D01*
X155515047Y-124241320D01*
X155674636Y-124136781D01*
X155827608Y-124005086D01*
X155971488Y-123848005D01*
X156053809Y-123740371D01*
X156088549Y-123696283D01*
X156118990Y-123665481D01*
X156137014Y-123655109D01*
X156163251Y-123668210D01*
X156183108Y-123708587D01*
X156197082Y-123777850D01*
X156205669Y-123877609D01*
X156205684Y-123877882D01*
X156205954Y-124015083D01*
X156189647Y-124133624D01*
X156154628Y-124243939D01*
X156112894Y-124331085D01*
X156052848Y-124442026D01*
X156191897Y-124521397D01*
X156304104Y-124590256D01*
X156435484Y-124679281D01*
X156582216Y-124785692D01*
X156740482Y-124906713D01*
X156906462Y-125039565D01*
X156923721Y-125053710D01*
X156994809Y-125110559D01*
X157086725Y-125181715D01*
X157193700Y-125262844D01*
X157309964Y-125349612D01*
X157429747Y-125437685D01*
X157547279Y-125522727D01*
X157565217Y-125535569D01*
X157671422Y-125611971D01*
X157771590Y-125684966D01*
X157861963Y-125751744D01*
X157938782Y-125809494D01*
X157998289Y-125855404D01*
X158036724Y-125886663D01*
X158046187Y-125895244D01*
X158078993Y-125931780D01*
X158100531Y-125969779D01*
X158115902Y-126020541D01*
X158126233Y-126072570D01*
X158137219Y-126150452D01*
X158137118Y-126200311D01*
X158131230Y-126218734D01*
X158103509Y-126245225D01*
X158050908Y-126279059D01*
X157979307Y-126317153D01*
X157894587Y-126356423D01*
X157802628Y-126393786D01*
X157784463Y-126400547D01*
X157734551Y-126416870D01*
X157658086Y-126439320D01*
X157560120Y-126466534D01*
X157445705Y-126497149D01*
X157319894Y-126529802D01*
X157187738Y-126563130D01*
X157118606Y-126580172D01*
X156705046Y-126681800D01*
X156320751Y-126777392D01*
X155963220Y-126867693D01*
X155629953Y-126953447D01*
X155318449Y-127035400D01*
X155026209Y-127114297D01*
X154750731Y-127190881D01*
X154489515Y-127265900D01*
X154240062Y-127340096D01*
X153999870Y-127414215D01*
X153766438Y-127489003D01*
X153537268Y-127565203D01*
X153309858Y-127643561D01*
X153081707Y-127724822D01*
X152850317Y-127809731D01*
X152613185Y-127899032D01*
X152367812Y-127993471D01*
X152345394Y-128002188D01*
X152136871Y-128082712D01*
X151958025Y-128150451D01*
X151808700Y-128205462D01*
X151688738Y-128247799D01*
X151597981Y-128277519D01*
X151536272Y-128294678D01*
X151505488Y-128299427D01*
X151475887Y-128293051D01*
X151427090Y-128276723D01*
X151369472Y-128253929D01*
X151367462Y-128253073D01*
X151289221Y-128215484D01*
X151187992Y-128160100D01*
X151066644Y-128088783D01*
X150928049Y-128003392D01*
X150775078Y-127905788D01*
X150610600Y-127797832D01*
X150437487Y-127681382D01*
X150258610Y-127558301D01*
X150076839Y-127430447D01*
X149895045Y-127299682D01*
X149885462Y-127292705D01*
X149763153Y-127203290D01*
X149664604Y-127130160D01*
X149587139Y-127070723D01*
X149528084Y-127022389D01*
X149484764Y-126982568D01*
X149454505Y-126948670D01*
X149434632Y-126918103D01*
X149422469Y-126888278D01*
X149415343Y-126856605D01*
X149412217Y-126834382D01*
X149407126Y-126767073D01*
X149406042Y-126710934D01*
X149488268Y-126710934D01*
X149490722Y-126760725D01*
X149496037Y-126813797D01*
X149503455Y-126860553D01*
X149512220Y-126891397D01*
X149513463Y-126893814D01*
X149535381Y-126917876D01*
X149581563Y-126957849D01*
X149649178Y-127011730D01*
X149735397Y-127077516D01*
X149837388Y-127153204D01*
X149952322Y-127236790D01*
X150077368Y-127326271D01*
X150209696Y-127419644D01*
X150346476Y-127514907D01*
X150484877Y-127610056D01*
X150622069Y-127703087D01*
X150755222Y-127791999D01*
X150881506Y-127874786D01*
X150998089Y-127949448D01*
X151057461Y-127986576D01*
X151119401Y-128023602D01*
X151191602Y-128064719D01*
X151267904Y-128106662D01*
X151342147Y-128146165D01*
X151408170Y-128179965D01*
X151459813Y-128204796D01*
X151490916Y-128217392D01*
X151494526Y-128218217D01*
X151510357Y-128213903D01*
X151549906Y-128201995D01*
X151605922Y-128184692D01*
X151632570Y-128176359D01*
X151686481Y-128158358D01*
X151764468Y-128130845D01*
X151860335Y-128096080D01*
X151967885Y-128056325D01*
X152080921Y-128013839D01*
X152147476Y-127988485D01*
X152406946Y-127889504D01*
X152650435Y-127797571D01*
X152880493Y-127711918D01*
X153099671Y-127631779D01*
X153310520Y-127556385D01*
X153515593Y-127484970D01*
X153717439Y-127416764D01*
X153918610Y-127351001D01*
X154121658Y-127286913D01*
X154329133Y-127223732D01*
X154543587Y-127160691D01*
X154767570Y-127097022D01*
X155003635Y-127031957D01*
X155254331Y-126964729D01*
X155522211Y-126894570D01*
X155809826Y-126820713D01*
X156119726Y-126742389D01*
X156454464Y-126658832D01*
X156816589Y-126569273D01*
X157076546Y-126505347D01*
X157307662Y-126447062D01*
X157506804Y-126393509D01*
X157674127Y-126344640D01*
X157809784Y-126300407D01*
X157913928Y-126260760D01*
X157986714Y-126225652D01*
X158007769Y-126212390D01*
X158035315Y-126180232D01*
X158044310Y-126149515D01*
X158039889Y-126113316D01*
X158029097Y-126070382D01*
X158015638Y-126032458D01*
X158003217Y-126011294D01*
X158000307Y-126009968D01*
X157982504Y-126015318D01*
X157941234Y-126029732D01*
X157883399Y-126050759D01*
X157839909Y-126066919D01*
X157768303Y-126091739D01*
X157675453Y-126121023D01*
X157571702Y-126151655D01*
X157467390Y-126180520D01*
X157431652Y-126189889D01*
X157323385Y-126218677D01*
X157197024Y-126253684D01*
X157065423Y-126291270D01*
X156941433Y-126327793D01*
X156891241Y-126343005D01*
X156718918Y-126395445D01*
X156569829Y-126439906D01*
X156436347Y-126478537D01*
X156310845Y-126513489D01*
X156185697Y-126546913D01*
X156053275Y-126580959D01*
X155998018Y-126594869D01*
X155927441Y-126613116D01*
X155830088Y-126639132D01*
X155710394Y-126671689D01*
X155572791Y-126709562D01*
X155421717Y-126751525D01*
X155261603Y-126796351D01*
X155096886Y-126842815D01*
X154942391Y-126886726D01*
X154772555Y-126934883D01*
X154599156Y-126983496D01*
X154427298Y-127031172D01*
X154262081Y-127076516D01*
X154108610Y-127118135D01*
X153971986Y-127154635D01*
X153857311Y-127184622D01*
X153783825Y-127203228D01*
X153602741Y-127250283D01*
X153418228Y-127302929D01*
X153226836Y-127362371D01*
X153025118Y-127429816D01*
X152809626Y-127506470D01*
X152576910Y-127593541D01*
X152323523Y-127692234D01*
X152046017Y-127803755D01*
X151919404Y-127855548D01*
X151584205Y-127993303D01*
X151456553Y-127950702D01*
X151343911Y-127906882D01*
X151210644Y-127844574D01*
X151060806Y-127766403D01*
X150898451Y-127674997D01*
X150727636Y-127572981D01*
X150552414Y-127462982D01*
X150376841Y-127347627D01*
X150204971Y-127229542D01*
X150040860Y-127111354D01*
X149888562Y-126995689D01*
X149752132Y-126885174D01*
X149635625Y-126782436D01*
X149598826Y-126747357D01*
X149554440Y-126705633D01*
X149518250Y-126674660D01*
X149496896Y-126660049D01*
X149494975Y-126659585D01*
X149489433Y-126674022D01*
X149488268Y-126710934D01*
X149406042Y-126710934D01*
X149405578Y-126686918D01*
X149407298Y-126624840D01*
X149411601Y-126563673D01*
X149414666Y-126547643D01*
X149510797Y-126547643D01*
X149657743Y-126689235D01*
X149781256Y-126800696D01*
X149929401Y-126921824D01*
X150097065Y-127049246D01*
X150279132Y-127179585D01*
X150470488Y-127309467D01*
X150666019Y-127435517D01*
X150860611Y-127554360D01*
X151049148Y-127662621D01*
X151226516Y-127756925D01*
X151387601Y-127833897D01*
X151401982Y-127840234D01*
X151480543Y-127872044D01*
X151540704Y-127888373D01*
X151592243Y-127889889D01*
X151644941Y-127877262D01*
X151688903Y-127859871D01*
X151759534Y-127830050D01*
X151854717Y-127790977D01*
X151968645Y-127744945D01*
X152095510Y-127694249D01*
X152229506Y-127641182D01*
X152364825Y-127588037D01*
X152495659Y-127537110D01*
X152616203Y-127490694D01*
X152720647Y-127451083D01*
X152774297Y-127431123D01*
X153030766Y-127339063D01*
X153259963Y-127261837D01*
X153463280Y-127199003D01*
X153642111Y-127150121D01*
X153720957Y-127131188D01*
X153822832Y-127107280D01*
X153936111Y-127079566D01*
X154045078Y-127051943D01*
X154114131Y-127033733D01*
X154178221Y-127016187D01*
X154262626Y-126992727D01*
X154363490Y-126964453D01*
X154476961Y-126932467D01*
X154599185Y-126897868D01*
X154726308Y-126861757D01*
X154854478Y-126825234D01*
X154979841Y-126789400D01*
X155098543Y-126755355D01*
X155206731Y-126724200D01*
X155300551Y-126697034D01*
X155376151Y-126674959D01*
X155429676Y-126659075D01*
X155457274Y-126650482D01*
X155460168Y-126649351D01*
X155453070Y-126636023D01*
X155428651Y-126605183D01*
X155391843Y-126562980D01*
X155383739Y-126554056D01*
X155344935Y-126507715D01*
X155321385Y-126472820D01*
X155429894Y-126472820D01*
X155494144Y-126547822D01*
X155558395Y-126622823D01*
X155660464Y-126594884D01*
X155712591Y-126578322D01*
X155749375Y-126562257D01*
X155762532Y-126550705D01*
X155752387Y-126530612D01*
X155726199Y-126495727D01*
X155700368Y-126465658D01*
X155664851Y-126428928D01*
X155635025Y-126409654D01*
X155601917Y-126406889D01*
X155556556Y-126419688D01*
X155496763Y-126444194D01*
X155429894Y-126472820D01*
X155321385Y-126472820D01*
X155318437Y-126468451D01*
X155309142Y-126443685D01*
X155309558Y-126441617D01*
X155329207Y-126421941D01*
X155367105Y-126401165D01*
X155376974Y-126397149D01*
X155435938Y-126374708D01*
X155193706Y-126151737D01*
X155118607Y-126082609D01*
X155262562Y-126082609D01*
X155274199Y-126102548D01*
X155306313Y-126138298D01*
X155356650Y-126187387D01*
X155422958Y-126247342D01*
X155434493Y-126257426D01*
X155528705Y-126339428D01*
X155594893Y-126317584D01*
X155661080Y-126295740D01*
X155766194Y-126412701D01*
X155812584Y-126462825D01*
X155851591Y-126502209D01*
X155877825Y-126525556D01*
X155885142Y-126529662D01*
X155907742Y-126526559D01*
X155950900Y-126518594D01*
X155985038Y-126511687D01*
X156035774Y-126499344D01*
X156073182Y-126487048D01*
X156084977Y-126480757D01*
X156082934Y-126462394D01*
X156064342Y-126426534D01*
X156033194Y-126380838D01*
X156032196Y-126379513D01*
X155998490Y-126332275D01*
X155980896Y-126303983D01*
X156105444Y-126303983D01*
X156106450Y-126322079D01*
X156123813Y-126354139D01*
X156150777Y-126391307D01*
X156180584Y-126424727D01*
X156206478Y-126445544D01*
X156215681Y-126448460D01*
X156241594Y-126444078D01*
X156286806Y-126432813D01*
X156322359Y-126422733D01*
X156408989Y-126397007D01*
X156335885Y-126323902D01*
X156262781Y-126250798D01*
X156191301Y-126271164D01*
X156145051Y-126286060D01*
X156112200Y-126299751D01*
X156105444Y-126303983D01*
X155980896Y-126303983D01*
X155974520Y-126293729D01*
X155965537Y-126272446D01*
X155979081Y-126254207D01*
X156012130Y-126234726D01*
X156016528Y-126232861D01*
X156067518Y-126212055D01*
X155987017Y-126124507D01*
X155906516Y-126036958D01*
X155721550Y-126074284D01*
X155592930Y-126094702D01*
X155472489Y-126103259D01*
X155367183Y-126099854D01*
X155283968Y-126084382D01*
X155273655Y-126080955D01*
X155262562Y-126082609D01*
X155118607Y-126082609D01*
X154951475Y-125928766D01*
X154834156Y-125928766D01*
X154771189Y-125926638D01*
X154722346Y-125917460D01*
X154704070Y-125907921D01*
X155064194Y-125907921D01*
X155145397Y-125944163D01*
X155256756Y-125984208D01*
X155375759Y-126010595D01*
X155489621Y-126020983D01*
X155551407Y-126018431D01*
X155617806Y-126008167D01*
X156010328Y-126008167D01*
X156015206Y-126024000D01*
X156039032Y-126055711D01*
X156076972Y-126097046D01*
X156086035Y-126106122D01*
X156131466Y-126149915D01*
X156161949Y-126174288D01*
X156185198Y-126183086D01*
X156208928Y-126180160D01*
X156224407Y-126175147D01*
X156259970Y-126165258D01*
X156289182Y-126166548D01*
X156318750Y-126182604D01*
X156355381Y-126217009D01*
X156403756Y-126271020D01*
X156445369Y-126316488D01*
X156480315Y-126350371D01*
X156502267Y-126366641D01*
X156504762Y-126367257D01*
X156530216Y-126363093D01*
X156572956Y-126352675D01*
X156588909Y-126348279D01*
X156633762Y-126333707D01*
X156665007Y-126320239D01*
X156670122Y-126316859D01*
X156667399Y-126299557D01*
X156646763Y-126265665D01*
X156612573Y-126222234D01*
X156609221Y-126218373D01*
X156571889Y-126173947D01*
X156548051Y-126142621D01*
X156663875Y-126142621D01*
X156675132Y-126167361D01*
X156703205Y-126201507D01*
X156739545Y-126236959D01*
X156775604Y-126265621D01*
X156802833Y-126279394D01*
X156808215Y-126279355D01*
X156839693Y-126270341D01*
X156886744Y-126256833D01*
X156903421Y-126252039D01*
X156944957Y-126238122D01*
X156969367Y-126226120D01*
X156972109Y-126222583D01*
X156962029Y-126206364D01*
X156935976Y-126173259D01*
X156901040Y-126132113D01*
X156830306Y-126051251D01*
X156747090Y-126090228D01*
X156701796Y-126113619D01*
X156671572Y-126133396D01*
X156663875Y-126142621D01*
X156548051Y-126142621D01*
X156544958Y-126138556D01*
X156533982Y-126119527D01*
X156533952Y-126119115D01*
X156546665Y-126102994D01*
X156577754Y-126081040D01*
X156582570Y-126078235D01*
X156615186Y-126057439D01*
X156631012Y-126042960D01*
X156631291Y-126041895D01*
X156620618Y-126027123D01*
X156592328Y-125996073D01*
X156552180Y-125955017D01*
X156545361Y-125948255D01*
X156459328Y-125863291D01*
X156366304Y-125895296D01*
X156302292Y-125916173D01*
X156223844Y-125940158D01*
X156147929Y-125962063D01*
X156147830Y-125962090D01*
X156087538Y-125979745D01*
X156039719Y-125995488D01*
X156012797Y-126006495D01*
X156010328Y-126008167D01*
X155617806Y-126008167D01*
X155642013Y-126004425D01*
X155758567Y-125979514D01*
X155896820Y-125944752D01*
X156052521Y-125901195D01*
X156184783Y-125861346D01*
X156266962Y-125835878D01*
X156341787Y-125812729D01*
X156401812Y-125794200D01*
X156439590Y-125782593D01*
X156443420Y-125781426D01*
X156466138Y-125776442D01*
X156486765Y-125779577D01*
X156510939Y-125794599D01*
X156544296Y-125825273D01*
X156592474Y-125875367D01*
X156606718Y-125890536D01*
X156722503Y-126014078D01*
X156773584Y-125987662D01*
X156814033Y-125969734D01*
X156844363Y-125961334D01*
X156846287Y-125961247D01*
X156865741Y-125972952D01*
X156899712Y-126004301D01*
X156942339Y-126049648D01*
X156964322Y-126074930D01*
X157009572Y-126125117D01*
X157049723Y-126163979D01*
X157078658Y-126185832D01*
X157086723Y-126188613D01*
X157116131Y-126184196D01*
X157164063Y-126172838D01*
X157200921Y-126162587D01*
X157250248Y-126147262D01*
X157285297Y-126134931D01*
X157296272Y-126129732D01*
X157289414Y-126115750D01*
X157264612Y-126085525D01*
X157227166Y-126045494D01*
X157225690Y-126043993D01*
X157181887Y-125994337D01*
X157163393Y-125964760D01*
X157281010Y-125964760D01*
X157291149Y-125983117D01*
X157316315Y-126015117D01*
X157348638Y-126051961D01*
X157380245Y-126084852D01*
X157403263Y-126104989D01*
X157408763Y-126107547D01*
X157428566Y-126103854D01*
X157470799Y-126094025D01*
X157526473Y-126080154D01*
X157528677Y-126079590D01*
X157582941Y-126064325D01*
X157622142Y-126050707D01*
X157638243Y-126041550D01*
X157638299Y-126041205D01*
X157625958Y-126027523D01*
X157593507Y-126001270D01*
X157547807Y-125967972D01*
X157544917Y-125965957D01*
X157451535Y-125900998D01*
X157366272Y-125926562D01*
X157319319Y-125942743D01*
X157288351Y-125957445D01*
X157281010Y-125964760D01*
X157163393Y-125964760D01*
X157157296Y-125955009D01*
X157153587Y-125936209D01*
X157169818Y-125915918D01*
X157212683Y-125892695D01*
X157284683Y-125865228D01*
X157296516Y-125861209D01*
X157360512Y-125840508D01*
X157414154Y-125824616D01*
X157449023Y-125815969D01*
X157455979Y-125815084D01*
X157477805Y-125824045D01*
X157519185Y-125848237D01*
X157573526Y-125883620D01*
X157616407Y-125913354D01*
X157754680Y-126011625D01*
X157826943Y-125984027D01*
X157871225Y-125965190D01*
X157901108Y-125948896D01*
X157907203Y-125943491D01*
X157896573Y-125931259D01*
X157862380Y-125904105D01*
X157808356Y-125864712D01*
X157738232Y-125815767D01*
X157655738Y-125759955D01*
X157610285Y-125729829D01*
X157456216Y-125627665D01*
X157324168Y-125538229D01*
X157208432Y-125457331D01*
X157103302Y-125380782D01*
X157003069Y-125304393D01*
X156902026Y-125223973D01*
X156794466Y-125135335D01*
X156753197Y-125100731D01*
X156602895Y-124975349D01*
X156465522Y-124862984D01*
X156342722Y-124764886D01*
X156236140Y-124682309D01*
X156147420Y-124616505D01*
X156078205Y-124568728D01*
X156030142Y-124540229D01*
X156006731Y-124532091D01*
X155988161Y-124544749D01*
X155958896Y-124577962D01*
X155925215Y-124624592D01*
X155924631Y-124625474D01*
X155855621Y-124718328D01*
X155770929Y-124814447D01*
X155677338Y-124907438D01*
X155581632Y-124990907D01*
X155490594Y-125058461D01*
X155423347Y-125097910D01*
X155368589Y-125124866D01*
X155426586Y-125317927D01*
X155484583Y-125510988D01*
X155640194Y-125500790D01*
X155737859Y-125490724D01*
X155837335Y-125474029D01*
X155933825Y-125452252D01*
X156022537Y-125426939D01*
X156098675Y-125399636D01*
X156157446Y-125371890D01*
X156194054Y-125345246D01*
X156203705Y-125321253D01*
X156203075Y-125319243D01*
X156202473Y-125294337D01*
X156291770Y-125294337D01*
X156299769Y-125321848D01*
X156307575Y-125328483D01*
X156341121Y-125335165D01*
X156364443Y-125316775D01*
X156368346Y-125289263D01*
X156351606Y-125260219D01*
X156331169Y-125254789D01*
X156303796Y-125267112D01*
X156291770Y-125294337D01*
X156202473Y-125294337D01*
X156202162Y-125281481D01*
X156217086Y-125235135D01*
X156241689Y-125195517D01*
X156258505Y-125181365D01*
X156316227Y-125166330D01*
X156378454Y-125173713D01*
X156421718Y-125195856D01*
X156453664Y-125239323D01*
X156460928Y-125290802D01*
X156447188Y-125342471D01*
X156416122Y-125386509D01*
X156371409Y-125415092D01*
X156316727Y-125420402D01*
X156316162Y-125420314D01*
X156264112Y-125423354D01*
X156194516Y-125447392D01*
X156168542Y-125459359D01*
X156035375Y-125511854D01*
X155882596Y-125552254D01*
X155721714Y-125577761D01*
X155659779Y-125583035D01*
X155588839Y-125588164D01*
X155544749Y-125593618D01*
X155521898Y-125600900D01*
X155514675Y-125611515D01*
X155515880Y-125621609D01*
X155510281Y-125664084D01*
X155473446Y-125713710D01*
X155409202Y-125767510D01*
X155343528Y-125815084D01*
X155458219Y-125815084D01*
X155582909Y-125807069D01*
X155729877Y-125783912D01*
X155893405Y-125746947D01*
X156067778Y-125697505D01*
X156247280Y-125636918D01*
X156289070Y-125621404D01*
X156359752Y-125593891D01*
X156405763Y-125572986D01*
X156432535Y-125555172D01*
X156536428Y-125555172D01*
X156558698Y-125580468D01*
X156594761Y-125584745D01*
X156628257Y-125574432D01*
X156639208Y-125548174D01*
X156639514Y-125538997D01*
X156632393Y-125507789D01*
X156604837Y-125494685D01*
X156594761Y-125493248D01*
X156554491Y-125497886D01*
X156540242Y-125513548D01*
X156536428Y-125555172D01*
X156432535Y-125555172D01*
X156433153Y-125554761D01*
X156447975Y-125535290D01*
X156455606Y-125513315D01*
X156485725Y-125451360D01*
X156536026Y-125413561D01*
X156593705Y-125402577D01*
X156653007Y-125416434D01*
X156697038Y-125452775D01*
X156722158Y-125503758D01*
X156724727Y-125561542D01*
X156701106Y-125618284D01*
X156696612Y-125624304D01*
X156645969Y-125666251D01*
X156586465Y-125677518D01*
X156530363Y-125661444D01*
X156505019Y-125650400D01*
X156481077Y-125646727D01*
X156450628Y-125651687D01*
X156405761Y-125666543D01*
X156340712Y-125691708D01*
X156213960Y-125737826D01*
X156068241Y-125784391D01*
X155916776Y-125827488D01*
X155772786Y-125863203D01*
X155730051Y-125872516D01*
X155650691Y-125885753D01*
X155561764Y-125895190D01*
X155470721Y-125900644D01*
X155385012Y-125901933D01*
X155312090Y-125898872D01*
X155259405Y-125891280D01*
X155240722Y-125884538D01*
X155210025Y-125873681D01*
X155171315Y-125876667D01*
X155135159Y-125886331D01*
X155064194Y-125907921D01*
X154704070Y-125907921D01*
X154683237Y-125897047D01*
X154649472Y-125861214D01*
X154616661Y-125805773D01*
X154580414Y-125726539D01*
X154553137Y-125660800D01*
X154522528Y-125588072D01*
X154495265Y-125527765D01*
X154474028Y-125485496D01*
X154461496Y-125466883D01*
X154460411Y-125466476D01*
X154439780Y-125471493D01*
X154396395Y-125484375D01*
X154338307Y-125502698D01*
X154315747Y-125510028D01*
X154238075Y-125532376D01*
X154155935Y-125551150D01*
X154085932Y-125562601D01*
X154080261Y-125563196D01*
X154019063Y-125569818D01*
X153965998Y-125576672D01*
X153937744Y-125581307D01*
X153899401Y-125589241D01*
X153910724Y-125828026D01*
X153922046Y-126066810D01*
X153867804Y-126118901D01*
X153789776Y-126172904D01*
X153688297Y-126210112D01*
X153568201Y-126229696D01*
X153434323Y-126230829D01*
X153305023Y-126215207D01*
X153226272Y-126199828D01*
X153168742Y-126182949D01*
X153128101Y-126159343D01*
X153100013Y-126123786D01*
X153080146Y-126071052D01*
X153064165Y-125995915D01*
X153049957Y-125907653D01*
X153044339Y-125876827D01*
X153035191Y-125859408D01*
X153016784Y-125855328D01*
X152983391Y-125864515D01*
X152929282Y-125886901D01*
X152886714Y-125905655D01*
X152846292Y-125924744D01*
X152816752Y-125944239D01*
X152792226Y-125970919D01*
X152766848Y-126011565D01*
X152734749Y-126072958D01*
X152724733Y-126092848D01*
X152651866Y-126229690D01*
X152586191Y-126335784D01*
X152527902Y-126410840D01*
X152489556Y-126446286D01*
X152452141Y-126479091D01*
X152443994Y-126502132D01*
X152464461Y-126518277D01*
X152472481Y-126521107D01*
X152505566Y-126517451D01*
X152559336Y-126491453D01*
X152612158Y-126458171D01*
X152694058Y-126407788D01*
X152757916Y-126379595D01*
X152808037Y-126372213D01*
X152846426Y-126382988D01*
X152874786Y-126407663D01*
X152875455Y-126438057D01*
X152847590Y-126476033D01*
X152790349Y-126523458D01*
X152779365Y-126531369D01*
X152729729Y-126566688D01*
X152690622Y-126594637D01*
X152669429Y-126609934D01*
X152668183Y-126610864D01*
X152656581Y-126631325D01*
X152647536Y-126659776D01*
X152645128Y-126683902D01*
X152655709Y-126703532D01*
X152685086Y-126725135D01*
X152727715Y-126749099D01*
X152777607Y-126778856D01*
X152816005Y-126807050D01*
X152832306Y-126824402D01*
X152853761Y-126848206D01*
X152895456Y-126883316D01*
X152949823Y-126924255D01*
X153009293Y-126965545D01*
X153066298Y-127001708D01*
X153111318Y-127026344D01*
X153141315Y-127039466D01*
X153166536Y-127044266D01*
X153196170Y-127039607D01*
X153239407Y-127024355D01*
X153288259Y-127004466D01*
X153354062Y-126979813D01*
X153439305Y-126951432D01*
X153531857Y-126923220D01*
X153601847Y-126903700D01*
X153677510Y-126883256D01*
X153741855Y-126865130D01*
X153788282Y-126851232D01*
X153810192Y-126843475D01*
X153810522Y-126843285D01*
X153806482Y-126831544D01*
X153779284Y-126810791D01*
X153735737Y-126784539D01*
X153682651Y-126756303D01*
X153626836Y-126729597D01*
X153575102Y-126707937D01*
X153534257Y-126694838D01*
X153518474Y-126692548D01*
X153470252Y-126679665D01*
X153430995Y-126647946D01*
X153408853Y-126606382D01*
X153408933Y-126590563D01*
X153484815Y-126590563D01*
X153492352Y-126606863D01*
X153513235Y-126610864D01*
X153538994Y-126603381D01*
X153541656Y-126590563D01*
X153521709Y-126571704D01*
X153513235Y-126570263D01*
X153488850Y-126583069D01*
X153484815Y-126590563D01*
X153408933Y-126590563D01*
X153409028Y-126571771D01*
X153435355Y-126527137D01*
X153475981Y-126503130D01*
X153522366Y-126498812D01*
X153565970Y-126513246D01*
X153598253Y-126545494D01*
X153610678Y-126593904D01*
X153617243Y-126624872D01*
X153641797Y-126650125D01*
X153679700Y-126671960D01*
X153732835Y-126699671D01*
X153797445Y-126734319D01*
X153841918Y-126758675D01*
X153935115Y-126810303D01*
X154008382Y-126782322D01*
X154050886Y-126764019D01*
X154077064Y-126748750D01*
X154081135Y-126743504D01*
X154067820Y-126727797D01*
X154034123Y-126701701D01*
X153988170Y-126670397D01*
X153938085Y-126639067D01*
X153891991Y-126612892D01*
X153858014Y-126597054D01*
X153847704Y-126594623D01*
X153794355Y-126582458D01*
X153756902Y-126551292D01*
X153737371Y-126509125D01*
X153737558Y-126489061D01*
X153805563Y-126489061D01*
X153816838Y-126507304D01*
X153839683Y-126509088D01*
X153857626Y-126494343D01*
X153859202Y-126489283D01*
X153848723Y-126473242D01*
X153833983Y-126467792D01*
X153809831Y-126474126D01*
X153805563Y-126489061D01*
X153737558Y-126489061D01*
X153737792Y-126463952D01*
X153760192Y-126423771D01*
X153798215Y-126399445D01*
X153853064Y-126393039D01*
X153898583Y-126413994D01*
X153927939Y-126457289D01*
X153935237Y-126500170D01*
X153940180Y-126524948D01*
X153957885Y-126550909D01*
X153993113Y-126583151D01*
X154050621Y-126626770D01*
X154059366Y-126633098D01*
X154183245Y-126722436D01*
X154266431Y-126689651D01*
X154321174Y-126667350D01*
X154350527Y-126652974D01*
X154359690Y-126643528D01*
X154356383Y-126637831D01*
X154265627Y-126568706D01*
X154191182Y-126522235D01*
X154134799Y-126499444D01*
X154116715Y-126497181D01*
X154069444Y-126486455D01*
X154027985Y-126459725D01*
X154003237Y-126425158D01*
X154000448Y-126410049D01*
X154006632Y-126392245D01*
X154084671Y-126392245D01*
X154089770Y-126415979D01*
X154112926Y-126431579D01*
X154136179Y-126419602D01*
X154137354Y-126417819D01*
X154134330Y-126396957D01*
X154123518Y-126384549D01*
X154098831Y-126377264D01*
X154084671Y-126392245D01*
X154006632Y-126392245D01*
X154013562Y-126372292D01*
X154045264Y-126334387D01*
X154084089Y-126307905D01*
X154107189Y-126302296D01*
X154153820Y-126316389D01*
X154192128Y-126351435D01*
X154211072Y-126396585D01*
X154211573Y-126404845D01*
X154218791Y-126428322D01*
X154242946Y-126457588D01*
X154287789Y-126496400D01*
X154349616Y-126543094D01*
X154406517Y-126585841D01*
X154452018Y-126622416D01*
X154480616Y-126648244D01*
X154487660Y-126657801D01*
X154476397Y-126679086D01*
X154467359Y-126687557D01*
X154442857Y-126699862D01*
X154392805Y-126720160D01*
X154322601Y-126746581D01*
X154237643Y-126777251D01*
X154143325Y-126810299D01*
X154045047Y-126843853D01*
X153948205Y-126876041D01*
X153858195Y-126904991D01*
X153780415Y-126928830D01*
X153732481Y-126942465D01*
X153599736Y-126980317D01*
X153458256Y-127024197D01*
X153322598Y-127069461D01*
X153230112Y-127102769D01*
X153188469Y-127114828D01*
X153148934Y-127115967D01*
X153105337Y-127104124D01*
X153051511Y-127077234D01*
X152981285Y-127033234D01*
X152940699Y-127005947D01*
X152862631Y-126956908D01*
X152802044Y-126927628D01*
X152766321Y-126919431D01*
X152729844Y-126911961D01*
X152675591Y-126892153D01*
X152613913Y-126863913D01*
X152599470Y-126856480D01*
X152539764Y-126825851D01*
X152500449Y-126809087D01*
X152473549Y-126804228D01*
X152451090Y-126809315D01*
X152436294Y-126816398D01*
X152405532Y-126835146D01*
X152392648Y-126848226D01*
X152392647Y-126848266D01*
X152403606Y-126862935D01*
X152432592Y-126893528D01*
X152473764Y-126933934D01*
X152481969Y-126941731D01*
X152536765Y-126999827D01*
X152566764Y-127046145D01*
X152571389Y-127078804D01*
X152550061Y-127095927D01*
X152530044Y-127098076D01*
X152479831Y-127087644D01*
X152411433Y-127058208D01*
X152330748Y-127012560D01*
X152281945Y-126980648D01*
X152238323Y-126952898D01*
X152208475Y-126942344D01*
X152180602Y-126946154D01*
X152164202Y-126952359D01*
X152128918Y-126970276D01*
X152120200Y-126988090D01*
X152138428Y-127012091D01*
X152169342Y-127037421D01*
X152211823Y-127077019D01*
X152246637Y-127120697D01*
X152250037Y-127126260D01*
X152267418Y-127163093D01*
X152265725Y-127188632D01*
X152256697Y-127203522D01*
X152222787Y-127224308D01*
X152171958Y-127219440D01*
X152106354Y-127189563D01*
X152028120Y-127135320D01*
X152027238Y-127134622D01*
X151976530Y-127095525D01*
X151939011Y-127072481D01*
X151902574Y-127061167D01*
X151855110Y-127057264D01*
X151808687Y-127056626D01*
X151741747Y-127057717D01*
X151693753Y-127064394D01*
X151651244Y-127080064D01*
X151600759Y-127108134D01*
X151597562Y-127110058D01*
X151522253Y-127151826D01*
X151467806Y-127173031D01*
X151430803Y-127174688D01*
X151413496Y-127164807D01*
X151408057Y-127138834D01*
X151417367Y-127108816D01*
X151475040Y-127108816D01*
X151488243Y-127109413D01*
X151527202Y-127091815D01*
X151566249Y-127071134D01*
X151617782Y-127040801D01*
X151630768Y-127029231D01*
X151994279Y-127029231D01*
X152005660Y-127049179D01*
X152035045Y-127076431D01*
X152102635Y-127130050D01*
X152156537Y-127164935D01*
X152194066Y-127179754D01*
X152212536Y-127173173D01*
X152214003Y-127165260D01*
X152202814Y-127147621D01*
X152174365Y-127116420D01*
X152136326Y-127078909D01*
X152096371Y-127042342D01*
X152062173Y-127013971D01*
X152041404Y-127001049D01*
X152040114Y-127000882D01*
X152016401Y-127008910D01*
X152004094Y-127015778D01*
X151994279Y-127029231D01*
X151630768Y-127029231D01*
X151641150Y-127019981D01*
X151638212Y-127005796D01*
X151614550Y-126996305D01*
X151581906Y-127002311D01*
X151537773Y-127035681D01*
X151521932Y-127051252D01*
X151486600Y-127089577D01*
X151475040Y-127108816D01*
X151417367Y-127108816D01*
X151420339Y-127099232D01*
X151445421Y-127055665D01*
X151478383Y-127017794D01*
X151494945Y-127004875D01*
X151526252Y-126978049D01*
X151526350Y-126957888D01*
X151499680Y-126943873D01*
X151464853Y-126946021D01*
X151406961Y-126965769D01*
X151347091Y-126993132D01*
X151266021Y-127028345D01*
X151208260Y-127042018D01*
X151172823Y-127034172D01*
X151158724Y-127004828D01*
X151158376Y-126997024D01*
X151159881Y-126993090D01*
X151212279Y-126993090D01*
X151217403Y-126998270D01*
X151237735Y-126991987D01*
X151278696Y-126973049D01*
X151312300Y-126956649D01*
X151367402Y-126927877D01*
X151394939Y-126907850D01*
X151397543Y-126893358D01*
X151377849Y-126881191D01*
X151375097Y-126880109D01*
X151346318Y-126883004D01*
X151305053Y-126901715D01*
X151262204Y-126929517D01*
X151228674Y-126959687D01*
X151216940Y-126977641D01*
X151212279Y-126993090D01*
X151159881Y-126993090D01*
X151169622Y-126967629D01*
X151198589Y-126927760D01*
X151225729Y-126899052D01*
X151263290Y-126860602D01*
X151278075Y-126836790D01*
X151273034Y-126822429D01*
X151270390Y-126820536D01*
X151236726Y-126813472D01*
X151223338Y-126816682D01*
X151163332Y-126840521D01*
X151095514Y-126864067D01*
X151029653Y-126884299D01*
X150975518Y-126898190D01*
X150945179Y-126902772D01*
X150905141Y-126894273D01*
X150882165Y-126878681D01*
X150873671Y-126860126D01*
X150880601Y-126843757D01*
X150939206Y-126843757D01*
X150943676Y-126852731D01*
X150974540Y-126849576D01*
X151033232Y-126834258D01*
X151080776Y-126819728D01*
X151146887Y-126796322D01*
X151182255Y-126777061D01*
X151188189Y-126760819D01*
X151165997Y-126746468D01*
X151165884Y-126746425D01*
X151133532Y-126746442D01*
X151084480Y-126759401D01*
X151029702Y-126781240D01*
X150980175Y-126807901D01*
X150959697Y-126822690D01*
X150939206Y-126843757D01*
X150880601Y-126843757D01*
X150882935Y-126838243D01*
X150913641Y-126805354D01*
X150920502Y-126798829D01*
X150968435Y-126760994D01*
X151019396Y-126731460D01*
X151036298Y-126724637D01*
X151080136Y-126702930D01*
X151092105Y-126676772D01*
X151073521Y-126646187D01*
X151065924Y-126629954D01*
X151166496Y-126629954D01*
X151231458Y-126686904D01*
X151268394Y-126713683D01*
X151327991Y-126750468D01*
X151403540Y-126793391D01*
X151488333Y-126838584D01*
X151539679Y-126864598D01*
X151631273Y-126909959D01*
X151700211Y-126942354D01*
X151753146Y-126962813D01*
X151796731Y-126972368D01*
X151837620Y-126972050D01*
X151882467Y-126962888D01*
X151937924Y-126945915D01*
X151978517Y-126932588D01*
X152040557Y-126909438D01*
X152059515Y-126901351D01*
X152288222Y-126901351D01*
X152291160Y-126922287D01*
X152301491Y-126934150D01*
X152332540Y-126955739D01*
X152376508Y-126981547D01*
X152424582Y-127007039D01*
X152467950Y-127027681D01*
X152497796Y-127038937D01*
X152505660Y-127039198D01*
X152498745Y-127025212D01*
X152472609Y-126996559D01*
X152433016Y-126959535D01*
X152369812Y-126910289D01*
X152323369Y-126888729D01*
X152293552Y-126894800D01*
X152288222Y-126901351D01*
X152059515Y-126901351D01*
X152118017Y-126876395D01*
X152203474Y-126837088D01*
X152289509Y-126795149D01*
X152368699Y-126754207D01*
X152378749Y-126748586D01*
X152541000Y-126748586D01*
X152547633Y-126765700D01*
X152580984Y-126789742D01*
X152638847Y-126820721D01*
X152704922Y-126850874D01*
X152754422Y-126867746D01*
X152784011Y-126870767D01*
X152790350Y-126859369D01*
X152781317Y-126845024D01*
X152753907Y-126822363D01*
X152709587Y-126795453D01*
X152657998Y-126769014D01*
X152608784Y-126747763D01*
X152571589Y-126736418D01*
X152559111Y-126736308D01*
X152541000Y-126748586D01*
X152378749Y-126748586D01*
X152433623Y-126717893D01*
X152476860Y-126689837D01*
X152480395Y-126687072D01*
X152527542Y-126648934D01*
X152383761Y-126569380D01*
X152561362Y-126569380D01*
X152571371Y-126578775D01*
X152586163Y-126588132D01*
X152598605Y-126591325D01*
X152615373Y-126585539D01*
X152643140Y-126567960D01*
X152688580Y-126535774D01*
X152710485Y-126520116D01*
X152772209Y-126472319D01*
X152807287Y-126437519D01*
X152816286Y-126417540D01*
X152799776Y-126414202D01*
X152758325Y-126429329D01*
X152693095Y-126464392D01*
X152625397Y-126505606D01*
X152583091Y-126534760D01*
X152562854Y-126554978D01*
X152561362Y-126569380D01*
X152383761Y-126569380D01*
X152269270Y-126506032D01*
X152182740Y-126458029D01*
X152132776Y-126430167D01*
X152329979Y-126430167D01*
X152338736Y-126445235D01*
X152344970Y-126449449D01*
X152365247Y-126460387D01*
X152383245Y-126460516D01*
X152406923Y-126446494D01*
X152444243Y-126414981D01*
X152459580Y-126401357D01*
X152495759Y-126365926D01*
X152517211Y-126338503D01*
X152519860Y-126326919D01*
X152499131Y-126325954D01*
X152461225Y-126337923D01*
X152416298Y-126358210D01*
X152374501Y-126382195D01*
X152345989Y-126405261D01*
X152344970Y-126406457D01*
X152329979Y-126430167D01*
X152132776Y-126430167D01*
X152102831Y-126413468D01*
X152054159Y-126386158D01*
X152227628Y-126386158D01*
X152238535Y-126398701D01*
X152249582Y-126399738D01*
X152269424Y-126391157D01*
X152306880Y-126368864D01*
X152345352Y-126343439D01*
X152400006Y-126310585D01*
X152454140Y-126285559D01*
X152483866Y-126276508D01*
X152507697Y-126270493D01*
X152527567Y-126259337D01*
X152547151Y-126238158D01*
X152570121Y-126202071D01*
X152600148Y-126146194D01*
X152637799Y-126071847D01*
X152678663Y-125991695D01*
X152709562Y-125935688D01*
X152734295Y-125898551D01*
X152756662Y-125875009D01*
X152780459Y-125859786D01*
X152795281Y-125853152D01*
X152844196Y-125832589D01*
X152906322Y-125805784D01*
X152948729Y-125787155D01*
X153041960Y-125745823D01*
X153031732Y-125678950D01*
X153024111Y-125635872D01*
X153017398Y-125608851D01*
X153015776Y-125605444D01*
X152999359Y-125608416D01*
X152958933Y-125621428D01*
X152900614Y-125642377D01*
X152831830Y-125668649D01*
X152653611Y-125738487D01*
X152528987Y-125959490D01*
X152478705Y-126048214D01*
X152439969Y-126114613D01*
X152408541Y-126164752D01*
X152380185Y-126204695D01*
X152350664Y-126240507D01*
X152315742Y-126278251D01*
X152282136Y-126312823D01*
X152241956Y-126358080D01*
X152227628Y-126386158D01*
X152054159Y-126386158D01*
X152035220Y-126375531D01*
X151985582Y-126347401D01*
X151961835Y-126333625D01*
X151929064Y-126313957D01*
X152107075Y-126313957D01*
X152124969Y-126328876D01*
X152148460Y-126344617D01*
X152166919Y-126347495D01*
X152189439Y-126334685D01*
X152225113Y-126303364D01*
X152234303Y-126294926D01*
X152269254Y-126259674D01*
X152291281Y-126231397D01*
X152295205Y-126221704D01*
X152282446Y-126216556D01*
X152249633Y-126224423D01*
X152204962Y-126242291D01*
X152156628Y-126267144D01*
X152134045Y-126280988D01*
X152107730Y-126300431D01*
X152107075Y-126313957D01*
X151929064Y-126313957D01*
X151912673Y-126304120D01*
X151580186Y-126450789D01*
X151481356Y-126494312D01*
X151390499Y-126534189D01*
X151312527Y-126568272D01*
X151252356Y-126594416D01*
X151214900Y-126610474D01*
X151207097Y-126613706D01*
X151166496Y-126629954D01*
X151065924Y-126629954D01*
X151061994Y-126621558D01*
X151071998Y-126596877D01*
X151079367Y-126574920D01*
X151071165Y-126548560D01*
X151044238Y-126509314D01*
X151035050Y-126497554D01*
X151003969Y-126453264D01*
X150983900Y-126415045D01*
X150979732Y-126398833D01*
X150973815Y-126385751D01*
X151027353Y-126385751D01*
X151032297Y-126408114D01*
X151061122Y-126450405D01*
X151087184Y-126480894D01*
X151124442Y-126520794D01*
X151148272Y-126540058D01*
X151166447Y-126542657D01*
X151186741Y-126532560D01*
X151187468Y-126532100D01*
X151192567Y-126517661D01*
X151175539Y-126491557D01*
X151135049Y-126451146D01*
X151080805Y-126405978D01*
X151044214Y-126384610D01*
X151027353Y-126385751D01*
X150973815Y-126385751D01*
X150968187Y-126373309D01*
X150938244Y-126336498D01*
X150905256Y-126304462D01*
X150830781Y-126238907D01*
X150747528Y-126271722D01*
X150686475Y-126296488D01*
X150647860Y-126315602D01*
X150623735Y-126334882D01*
X150606148Y-126360143D01*
X150593506Y-126384432D01*
X150559140Y-126428574D01*
X150518827Y-126446509D01*
X150480320Y-126439658D01*
X150451374Y-126409440D01*
X150443904Y-126375940D01*
X150493386Y-126375940D01*
X150506437Y-126395143D01*
X150519594Y-126396869D01*
X150545892Y-126383922D01*
X150551811Y-126375378D01*
X150549230Y-126348287D01*
X150532074Y-126327375D01*
X150510863Y-126325360D01*
X150510575Y-126325534D01*
X150494180Y-126348108D01*
X150493386Y-126375940D01*
X150443904Y-126375940D01*
X150439741Y-126357273D01*
X150439738Y-126356294D01*
X150453528Y-126309875D01*
X150489325Y-126281435D01*
X150538770Y-126277425D01*
X150541261Y-126277940D01*
X150572118Y-126276325D01*
X150625633Y-126262193D01*
X150703757Y-126234911D01*
X150740675Y-126220428D01*
X150898530Y-126220428D01*
X150911963Y-126243867D01*
X150946908Y-126274669D01*
X150995329Y-126306707D01*
X151044693Y-126331925D01*
X151099963Y-126363131D01*
X151157815Y-126406468D01*
X151182737Y-126429389D01*
X151220296Y-126465379D01*
X151249357Y-126489675D01*
X151260685Y-126496108D01*
X151282754Y-126490001D01*
X151319057Y-126473690D01*
X151322727Y-126471813D01*
X151371782Y-126446446D01*
X151305680Y-126374734D01*
X151270013Y-126331037D01*
X151246013Y-126292055D01*
X151239578Y-126271583D01*
X151235514Y-126263243D01*
X151288768Y-126263243D01*
X151296685Y-126290269D01*
X151327373Y-126331682D01*
X151348437Y-126354392D01*
X151390085Y-126390362D01*
X151428160Y-126412081D01*
X151456000Y-126416883D01*
X151466942Y-126402103D01*
X151466944Y-126401807D01*
X151455509Y-126383102D01*
X151426707Y-126351982D01*
X151388789Y-126315996D01*
X151350010Y-126282692D01*
X151318620Y-126259621D01*
X151304903Y-126253575D01*
X151288768Y-126263243D01*
X151235514Y-126263243D01*
X151227114Y-126246006D01*
X151195997Y-126212066D01*
X151155645Y-126177746D01*
X151115473Y-126151030D01*
X151084897Y-126139901D01*
X151084261Y-126139892D01*
X151057619Y-126145808D01*
X151016107Y-126160658D01*
X150969756Y-126180091D01*
X150928600Y-126199756D01*
X150902669Y-126215304D01*
X150898530Y-126220428D01*
X150740675Y-126220428D01*
X150808443Y-126193843D01*
X150840328Y-126180798D01*
X151098141Y-126074596D01*
X151184403Y-126139725D01*
X151233169Y-126173281D01*
X151275593Y-126196795D01*
X151300688Y-126204853D01*
X151337957Y-126216380D01*
X151387105Y-126246793D01*
X151439442Y-126289843D01*
X151484334Y-126336916D01*
X151512332Y-126368436D01*
X151533135Y-126378191D01*
X151560095Y-126369572D01*
X151577717Y-126360642D01*
X151611739Y-126341209D01*
X151628863Y-126327828D01*
X151629348Y-126326569D01*
X151620283Y-126310865D01*
X151596556Y-126276915D01*
X151564456Y-126233604D01*
X151530997Y-126185641D01*
X151507772Y-126145106D01*
X151569999Y-126145106D01*
X151574470Y-126161448D01*
X151595457Y-126194503D01*
X151621944Y-126229027D01*
X151663970Y-126272495D01*
X151699795Y-126295305D01*
X151724932Y-126295799D01*
X151734891Y-126272322D01*
X151734911Y-126270702D01*
X151723282Y-126250984D01*
X151694020Y-126222285D01*
X151655557Y-126191028D01*
X151616326Y-126163635D01*
X151584760Y-126146530D01*
X151569999Y-126145106D01*
X151507772Y-126145106D01*
X151507541Y-126144702D01*
X151499495Y-126121329D01*
X151510517Y-126091535D01*
X151541198Y-126082940D01*
X151587642Y-126094381D01*
X151645952Y-126124694D01*
X151712231Y-126172716D01*
X151734246Y-126191421D01*
X151776229Y-126226897D01*
X151804570Y-126243848D01*
X151829411Y-126245867D01*
X151860899Y-126236546D01*
X151861282Y-126236407D01*
X151901342Y-126225998D01*
X151936643Y-126230676D01*
X151977492Y-126248954D01*
X152039882Y-126280962D01*
X152130047Y-126226667D01*
X152201197Y-126188588D01*
X152256578Y-126170838D01*
X152298118Y-126170067D01*
X152309341Y-126157177D01*
X152333707Y-126120447D01*
X152368439Y-126064350D01*
X152410762Y-125993358D01*
X152452402Y-125921552D01*
X152595652Y-125671497D01*
X152810838Y-125586356D01*
X153026023Y-125501215D01*
X153025774Y-125442964D01*
X153025354Y-125411213D01*
X153022062Y-125387283D01*
X153012398Y-125371217D01*
X152992861Y-125363059D01*
X152959951Y-125362853D01*
X152910165Y-125370643D01*
X152840004Y-125386472D01*
X152745966Y-125410384D01*
X152624550Y-125442423D01*
X152602524Y-125448260D01*
X152288900Y-125532741D01*
X151980228Y-125618596D01*
X151679680Y-125704845D01*
X151390426Y-125790511D01*
X151115640Y-125874615D01*
X150858491Y-125956179D01*
X150622153Y-126034225D01*
X150409796Y-126107774D01*
X150224592Y-126175849D01*
X150151471Y-126204232D01*
X150046464Y-126247572D01*
X149939497Y-126294875D01*
X149835722Y-126343558D01*
X149740294Y-126391038D01*
X149658367Y-126434733D01*
X149595092Y-126472060D01*
X149555625Y-126500438D01*
X149550500Y-126505381D01*
X149510797Y-126547643D01*
X149414666Y-126547643D01*
X149419173Y-126524073D01*
X149434818Y-126495160D01*
X149463341Y-126466059D01*
X149486285Y-126446009D01*
X149553751Y-126397068D01*
X149649770Y-126341189D01*
X149771466Y-126279626D01*
X149915961Y-126213636D01*
X150080379Y-126144473D01*
X150261842Y-126073394D01*
X150457474Y-126001654D01*
X150664397Y-125930508D01*
X150677464Y-125926167D01*
X150888697Y-125857705D01*
X151125095Y-125783835D01*
X151380169Y-125706438D01*
X151647431Y-125627396D01*
X151920393Y-125548589D01*
X152192567Y-125471901D01*
X152457466Y-125399211D01*
X152708600Y-125332401D01*
X152857805Y-125293928D01*
X153006275Y-125256187D01*
X153014183Y-124792637D01*
X153017420Y-124633847D01*
X153021625Y-124501278D01*
X153027445Y-124388674D01*
X153035525Y-124289776D01*
X153046512Y-124198326D01*
X153061051Y-124108066D01*
X153079789Y-124012740D01*
X153103371Y-123906089D01*
X153107621Y-123887628D01*
X153123506Y-123819982D01*
X153137625Y-123761795D01*
X153147725Y-123722288D01*
X153150177Y-123713640D01*
X153152797Y-123694407D01*
X153139311Y-123688159D01*
X153102305Y-123692028D01*
X153096637Y-123692923D01*
X153064884Y-123700415D01*
X153006889Y-123716502D01*
X152927318Y-123739795D01*
X152830836Y-123768902D01*
X152722109Y-123802433D01*
X152605802Y-123838999D01*
X152595397Y-123842303D01*
X152409757Y-123900833D01*
X152251457Y-123949572D01*
X152117149Y-123989382D01*
X152003489Y-124021121D01*
X151907128Y-124045649D01*
X151824722Y-124063826D01*
X151752923Y-124076511D01*
X151688386Y-124084563D01*
X151637468Y-124088369D01*
X151563954Y-124091233D01*
X151512673Y-124089606D01*
X151473528Y-124082105D01*
X151436418Y-124067342D01*
X151418354Y-124058303D01*
X151345309Y-124006508D01*
X151293405Y-123935718D01*
X151259397Y-123841224D01*
X151254838Y-123820908D01*
X151245109Y-123733658D01*
X151348387Y-123733658D01*
X151359288Y-123817749D01*
X151382668Y-123888802D01*
X151395257Y-123911244D01*
X151426407Y-123942344D01*
X151472335Y-123972391D01*
X151517957Y-123992280D01*
X151534871Y-123995522D01*
X151547759Y-123982628D01*
X151557773Y-123959617D01*
X151565441Y-123913924D01*
X151568529Y-123845208D01*
X151567382Y-123762551D01*
X151562345Y-123675036D01*
X151553764Y-123591746D01*
X151541986Y-123521761D01*
X151540929Y-123517066D01*
X151522912Y-123443444D01*
X151507914Y-123397251D01*
X151493083Y-123373968D01*
X151475561Y-123369078D01*
X151452937Y-123377827D01*
X151413499Y-123415598D01*
X151382522Y-123477500D01*
X151360808Y-123556100D01*
X151349162Y-123643964D01*
X151348387Y-123733658D01*
X151245109Y-123733658D01*
X151244358Y-123726920D01*
X151248023Y-123625247D01*
X151264138Y-123524517D01*
X151291008Y-123433356D01*
X151326936Y-123360390D01*
X151331604Y-123354526D01*
X151594296Y-123354526D01*
X151594404Y-123372895D01*
X151601988Y-123414162D01*
X151615469Y-123470029D01*
X151618236Y-123480389D01*
X151635721Y-123561067D01*
X151646275Y-123652296D01*
X151650891Y-123763622D01*
X151651242Y-123797213D01*
X151652527Y-123873288D01*
X151655242Y-123935933D01*
X151658999Y-123978936D01*
X151663408Y-123996086D01*
X151663716Y-123996158D01*
X151693938Y-123991546D01*
X151750448Y-123978595D01*
X151828524Y-123958631D01*
X151923446Y-123932978D01*
X152030492Y-123902964D01*
X152144939Y-123869914D01*
X152262068Y-123835153D01*
X152377156Y-123800009D01*
X152485482Y-123765805D01*
X152495206Y-123762667D01*
X152657595Y-123710376D01*
X152792122Y-123667741D01*
X152901725Y-123634106D01*
X152989342Y-123608821D01*
X153057914Y-123591232D01*
X153110379Y-123580684D01*
X153149676Y-123576527D01*
X153178743Y-123578106D01*
X153200520Y-123584768D01*
X153217946Y-123595860D01*
X153223689Y-123600785D01*
X153243252Y-123628756D01*
X153251601Y-123670294D01*
X153248700Y-123730137D01*
X153234513Y-123813027D01*
X153221647Y-123871183D01*
X153188690Y-124024022D01*
X153163165Y-124170783D01*
X153144383Y-124318647D01*
X153131657Y-124474791D01*
X153124296Y-124646395D01*
X153121612Y-124840637D01*
X153121643Y-124913276D01*
X153123348Y-125107102D01*
X153127002Y-125292971D01*
X153132427Y-125467488D01*
X153139443Y-125627260D01*
X153147869Y-125768893D01*
X153157526Y-125888993D01*
X153168233Y-125984166D01*
X153179812Y-126051018D01*
X153182505Y-126061760D01*
X153205112Y-126084346D01*
X153258781Y-126102836D01*
X153274470Y-126106261D01*
X153329322Y-126117513D01*
X153375171Y-126127206D01*
X153391432Y-126130803D01*
X153422385Y-126133527D01*
X153475616Y-126134105D01*
X153540988Y-126132482D01*
X153558783Y-126131690D01*
X153642397Y-126124726D01*
X153704462Y-126111833D01*
X153755713Y-126090671D01*
X153761788Y-126087386D01*
X153829923Y-126049665D01*
X153823639Y-125784483D01*
X153821721Y-125681894D01*
X153821733Y-125607376D01*
X153823929Y-125556563D01*
X153828561Y-125525089D01*
X153835885Y-125508588D01*
X153839880Y-125505037D01*
X153867548Y-125497255D01*
X153915864Y-125491857D01*
X153959847Y-125490242D01*
X154093465Y-125479173D01*
X154231077Y-125449714D01*
X154357172Y-125405424D01*
X154384090Y-125392938D01*
X154436711Y-125368255D01*
X154478633Y-125350699D01*
X154500572Y-125344112D01*
X154513064Y-125358336D01*
X154533415Y-125396772D01*
X154558507Y-125453061D01*
X154578286Y-125502456D01*
X154609735Y-125581697D01*
X154643190Y-125661403D01*
X154673362Y-125729136D01*
X154685343Y-125754182D01*
X154731734Y-125847564D01*
X154816762Y-125847351D01*
X154930316Y-125839207D01*
X155051072Y-125817110D01*
X155170075Y-125783758D01*
X155278371Y-125741849D01*
X155367007Y-125694080D01*
X155396518Y-125672675D01*
X155436204Y-125640540D01*
X155319101Y-125252780D01*
X155217773Y-124922876D01*
X155121463Y-124620758D01*
X155069298Y-124463960D01*
X155159648Y-124463960D01*
X155159780Y-124464806D01*
X155166451Y-124483021D01*
X155181148Y-124526931D01*
X155202140Y-124591250D01*
X155227699Y-124670693D01*
X155249703Y-124739781D01*
X155333592Y-125004312D01*
X155417415Y-124959026D01*
X155462299Y-124929745D01*
X155522127Y-124883730D01*
X155589011Y-124827348D01*
X155653574Y-124768390D01*
X155747728Y-124672980D01*
X155838779Y-124570420D01*
X155922280Y-124466501D01*
X155993786Y-124367014D01*
X156048852Y-124277750D01*
X156079879Y-124213039D01*
X156095850Y-124160212D01*
X156109312Y-124094534D01*
X156119666Y-124023037D01*
X156126310Y-123952752D01*
X156128645Y-123890713D01*
X156126070Y-123843952D01*
X156117985Y-123819500D01*
X156113638Y-123817513D01*
X156096320Y-123826948D01*
X156095460Y-123831053D01*
X156084072Y-123852380D01*
X156053034Y-123890513D01*
X156007040Y-123940751D01*
X155950783Y-123998394D01*
X155888956Y-124058743D01*
X155826251Y-124117098D01*
X155767361Y-124168758D01*
X155721267Y-124205820D01*
X155569173Y-124307808D01*
X155420555Y-124381037D01*
X155270233Y-124428054D01*
X155268824Y-124428374D01*
X155213952Y-124442246D01*
X155175101Y-124454930D01*
X155159648Y-124463960D01*
X155069298Y-124463960D01*
X155030347Y-124346880D01*
X154944598Y-124101699D01*
X154864391Y-123885671D01*
X154789899Y-123699251D01*
X154721297Y-123542895D01*
X154658759Y-123417058D01*
X154602460Y-123322197D01*
X154560334Y-123267026D01*
X154527156Y-123224190D01*
X154506939Y-123186044D01*
X154502560Y-123159629D01*
X154513184Y-123151656D01*
X154531108Y-123148584D01*
X154576231Y-123139971D01*
X154643918Y-123126730D01*
X154729535Y-123109771D01*
X154828446Y-123090002D01*
X154882653Y-123079104D01*
X155169721Y-123018942D01*
X155433732Y-122958820D01*
X155672666Y-122899257D01*
X155884506Y-122840774D01*
X156067233Y-122783887D01*
X156165484Y-122749474D01*
X156276109Y-122708659D01*
X156227382Y-122658131D01*
X156192590Y-122616250D01*
X156167102Y-122575417D01*
X156163428Y-122567002D01*
X156146066Y-122496704D01*
X156136567Y-122405460D01*
X156135999Y-122350545D01*
X156225384Y-122350545D01*
X156230581Y-122457894D01*
X156247169Y-122536984D01*
X156276638Y-122590488D01*
X156320481Y-122621084D01*
X156380190Y-122631445D01*
X156382037Y-122631470D01*
X156433128Y-122631963D01*
X156443786Y-122506100D01*
X156446193Y-122387587D01*
X156433892Y-122278308D01*
X156408115Y-122187312D01*
X156397160Y-122163413D01*
X156364513Y-122119280D01*
X156321056Y-122083304D01*
X156278391Y-122064508D01*
X156268764Y-122063549D01*
X156251316Y-122079478D01*
X156238206Y-122126563D01*
X156229594Y-122203745D01*
X156225640Y-122309970D01*
X156225384Y-122350545D01*
X156135999Y-122350545D01*
X156135518Y-122303978D01*
X156143503Y-122202967D01*
X156143512Y-122202897D01*
X156150783Y-122142356D01*
X156155163Y-122095795D01*
X156155938Y-122071218D01*
X156155431Y-122069385D01*
X156137729Y-122072181D01*
X156092001Y-122085897D01*
X156020513Y-122109722D01*
X155925525Y-122142843D01*
X155809301Y-122184447D01*
X155674103Y-122233723D01*
X155522196Y-122289856D01*
X155355841Y-122352036D01*
X155177300Y-122419448D01*
X155121036Y-122440824D01*
X154952199Y-122505019D01*
X154811029Y-122558518D01*
X154694843Y-122602201D01*
X154600959Y-122636946D01*
X154526697Y-122663635D01*
X154469373Y-122683147D01*
X154426306Y-122696362D01*
X154394815Y-122704160D01*
X154372217Y-122707421D01*
X154355831Y-122707025D01*
X154342975Y-122703851D01*
X154332583Y-122699519D01*
X154299417Y-122679564D01*
X154274689Y-122650866D01*
X154256633Y-122608276D01*
X154243487Y-122546640D01*
X154233485Y-122460807D01*
X154228195Y-122394631D01*
X154208016Y-122217843D01*
X154173638Y-122066477D01*
X154123151Y-121935888D01*
X154054647Y-121821432D01*
X153966218Y-121718464D01*
X153939916Y-121693176D01*
X153810688Y-121593915D01*
X153664263Y-121520447D01*
X153499365Y-121472332D01*
X153314717Y-121449127D01*
X153228380Y-121446695D01*
X153048131Y-121458644D01*
X152887212Y-121495716D01*
X152743373Y-121558761D01*
X152614361Y-121648632D01*
X152559111Y-121699476D01*
X152513615Y-121746740D01*
X152478666Y-121786653D01*
X152459598Y-121812962D01*
X152457609Y-121818439D01*
X152472367Y-121829428D01*
X152510960Y-121835552D01*
X152531758Y-121836183D01*
X152616660Y-121846987D01*
X152677356Y-121879382D01*
X152695487Y-121899246D01*
X152725226Y-121917107D01*
X152779477Y-121919798D01*
X152781683Y-121919645D01*
X152821646Y-121913360D01*
X152856407Y-121897371D01*
X152895269Y-121866082D01*
X152933575Y-121828318D01*
X152994863Y-121772529D01*
X153054986Y-121736141D01*
X153123499Y-121715543D01*
X153209955Y-121707126D01*
X153256392Y-121706351D01*
X153347145Y-121711002D01*
X153415472Y-121726950D01*
X153470278Y-121756923D01*
X153497855Y-121780347D01*
X153539315Y-121819887D01*
X153676499Y-121771514D01*
X153758450Y-121744009D01*
X153816575Y-121728787D01*
X153856919Y-121725367D01*
X153885522Y-121733268D01*
X153908429Y-121752009D01*
X153909303Y-121752967D01*
X153934509Y-121799135D01*
X153948466Y-121861481D01*
X153948298Y-121924803D01*
X153945014Y-121941919D01*
X153929737Y-121973482D01*
X153901531Y-121979740D01*
X153898371Y-121979341D01*
X153875837Y-121971223D01*
X153863830Y-121949334D01*
X153857984Y-121904897D01*
X153857454Y-121897085D01*
X153850538Y-121848347D01*
X153838667Y-121822270D01*
X153833094Y-121819753D01*
X153809460Y-121824713D01*
X153763958Y-121838053D01*
X153705291Y-121857174D01*
X153688425Y-121862954D01*
X153563167Y-121906345D01*
X153552320Y-121978678D01*
X153524896Y-122059642D01*
X153472331Y-122129784D01*
X153400623Y-122187106D01*
X153315771Y-122229613D01*
X153223773Y-122255307D01*
X153130630Y-122262193D01*
X153042339Y-122248274D01*
X152964899Y-122211553D01*
X152932920Y-122184820D01*
X152899827Y-122142030D01*
X153205063Y-122142030D01*
X153211729Y-122159605D01*
X153218919Y-122160992D01*
X153239899Y-122149856D01*
X153254435Y-122135370D01*
X153279400Y-122101259D01*
X153311426Y-122051973D01*
X153346545Y-121994385D01*
X153380789Y-121935364D01*
X153410191Y-121881782D01*
X153430782Y-121840510D01*
X153438595Y-121818419D01*
X153438306Y-121816953D01*
X153422918Y-121804629D01*
X153401983Y-121812626D01*
X153373116Y-121843306D01*
X153333932Y-121899031D01*
X153298050Y-121955896D01*
X153247681Y-122041582D01*
X153216867Y-122103158D01*
X153205063Y-122142030D01*
X152899827Y-122142030D01*
X152892665Y-122132769D01*
X152879862Y-122082176D01*
X152879859Y-122081414D01*
X152875754Y-122045787D01*
X152858353Y-122032434D01*
X152840316Y-122031068D01*
X152787836Y-122037841D01*
X152744399Y-122055127D01*
X152719814Y-122078376D01*
X152717455Y-122088048D01*
X152707417Y-122129508D01*
X152681517Y-122184119D01*
X152646080Y-122241308D01*
X152607429Y-122290502D01*
X152582144Y-122314293D01*
X152543131Y-122336912D01*
X152492361Y-122357396D01*
X152439917Y-122372820D01*
X152395883Y-122380254D01*
X152370340Y-122376771D01*
X152369501Y-122376038D01*
X152349613Y-122373998D01*
X152337156Y-122377472D01*
X152324104Y-122386392D01*
X152321328Y-122404729D01*
X152328902Y-122440760D01*
X152338019Y-122472860D01*
X152376444Y-122568733D01*
X152430672Y-122641494D01*
X152504808Y-122694489D01*
X152602957Y-122731068D01*
X152673193Y-122746200D01*
X152810657Y-122754693D01*
X152952518Y-122735674D01*
X153092456Y-122691962D01*
X153224151Y-122626377D01*
X153341285Y-122541739D01*
X153437539Y-122440865D01*
X153473455Y-122389156D01*
X153516569Y-122327106D01*
X153550422Y-122295877D01*
X153575340Y-122295256D01*
X153588265Y-122314495D01*
X153586049Y-122347112D01*
X153565146Y-122396077D01*
X153529728Y-122454665D01*
X153483967Y-122516153D01*
X153432038Y-122573814D01*
X153420251Y-122585270D01*
X153332619Y-122668148D01*
X153374206Y-122772029D01*
X153404453Y-122857937D01*
X153414825Y-122922069D01*
X153403196Y-122969850D01*
X153367439Y-123006709D01*
X153305428Y-123038071D01*
X153263937Y-123053379D01*
X153202980Y-123071551D01*
X153115980Y-123093555D01*
X153007478Y-123118539D01*
X152882013Y-123145650D01*
X152744124Y-123174036D01*
X152598351Y-123202846D01*
X152449233Y-123231226D01*
X152301309Y-123258324D01*
X152159119Y-123283288D01*
X152027202Y-123305266D01*
X151910098Y-123323406D01*
X151812346Y-123336855D01*
X151738485Y-123344760D01*
X151702513Y-123346541D01*
X151648682Y-123347739D01*
X151609268Y-123350854D01*
X151594296Y-123354526D01*
X151331604Y-123354526D01*
X151351380Y-123329683D01*
X151410447Y-123291100D01*
X151496878Y-123264575D01*
X151607576Y-123250887D01*
X151672062Y-123249099D01*
X151713214Y-123246342D01*
X151781768Y-123238513D01*
X151873156Y-123226272D01*
X151982808Y-123210280D01*
X152106156Y-123191196D01*
X152238631Y-123169682D01*
X152341290Y-123152339D01*
X152518105Y-123121807D01*
X152666452Y-123095789D01*
X152789916Y-123073554D01*
X152892083Y-123054372D01*
X152976539Y-123037515D01*
X153046871Y-123022251D01*
X153106665Y-123007851D01*
X153159506Y-122993585D01*
X153208981Y-122978724D01*
X153234407Y-122970571D01*
X153286937Y-122952110D01*
X153317847Y-122933968D01*
X153328989Y-122909369D01*
X153322213Y-122871540D01*
X153299370Y-122813704D01*
X153285769Y-122782587D01*
X153255569Y-122713964D01*
X153166427Y-122754775D01*
X153033794Y-122803160D01*
X152896878Y-122830761D01*
X152761315Y-122837889D01*
X152632742Y-122824853D01*
X152516796Y-122791966D01*
X152419112Y-122739536D01*
X152384824Y-122711706D01*
X152314000Y-122625749D01*
X152262774Y-122519407D01*
X152238784Y-122425576D01*
X152223704Y-122373119D01*
X152199111Y-122348323D01*
X152196017Y-122347202D01*
X152156389Y-122319110D01*
X152124047Y-122267452D01*
X152104811Y-122210060D01*
X152476781Y-122210060D01*
X152482481Y-122222515D01*
X152500665Y-122225756D01*
X152502270Y-122225754D01*
X152526431Y-122210929D01*
X152560761Y-122168258D01*
X152601324Y-122103623D01*
X152633577Y-122043307D01*
X152655167Y-121993505D01*
X152655497Y-121992168D01*
X153181149Y-121992168D01*
X153182375Y-122001933D01*
X153204722Y-122014222D01*
X153236143Y-121997341D01*
X153254305Y-121978287D01*
X153277959Y-121939619D01*
X153284355Y-121906196D01*
X153272668Y-121886784D01*
X153263104Y-121884905D01*
X153241252Y-121897263D01*
X153215107Y-121926800D01*
X153192472Y-121962205D01*
X153181149Y-121992168D01*
X152655497Y-121992168D01*
X152663056Y-121961536D01*
X152662340Y-121956629D01*
X152652653Y-121941377D01*
X152639000Y-121942881D01*
X152618436Y-121964126D01*
X152588014Y-122008098D01*
X152547946Y-122072576D01*
X152508176Y-122139574D01*
X152484900Y-122183908D01*
X152476781Y-122210060D01*
X152104811Y-122210060D01*
X152101715Y-122200823D01*
X152092120Y-122127815D01*
X152092201Y-122126835D01*
X152399823Y-122126835D01*
X152400334Y-122127809D01*
X152419824Y-122143536D01*
X152444529Y-122131512D01*
X152472743Y-122097583D01*
X152500195Y-122051764D01*
X152504028Y-122022259D01*
X152491148Y-122007362D01*
X152472977Y-122012765D01*
X152447355Y-122037233D01*
X152421686Y-122070948D01*
X152403374Y-122104088D01*
X152399823Y-122126835D01*
X152092201Y-122126835D01*
X152097988Y-122057022D01*
X152100579Y-122046344D01*
X152131480Y-121984446D01*
X152185354Y-121926336D01*
X152253100Y-121880908D01*
X152283314Y-121867816D01*
X152339236Y-121831663D01*
X152383214Y-121777226D01*
X152438067Y-121706077D01*
X152512970Y-121629878D01*
X152598393Y-121556996D01*
X152684805Y-121495796D01*
X152738134Y-121465678D01*
X152839529Y-121420896D01*
X152936560Y-121390476D01*
X153039519Y-121372269D01*
X153158697Y-121364124D01*
X153229028Y-121363153D01*
X153427596Y-121374950D01*
G37*
D12*
%TO.C,C14*%
X151115580Y-96040000D02*
X150834420Y-96040000D01*
X151115580Y-97060000D02*
X150834420Y-97060000D01*
%TO.C,R2*%
X154385000Y-90766359D02*
X154385000Y-91073641D01*
X155145000Y-90766359D02*
X155145000Y-91073641D01*
%TO.C,R3*%
X153670000Y-105936359D02*
X153670000Y-106243641D01*
X154430000Y-105936359D02*
X154430000Y-106243641D01*
%TO.C,U1*%
X149765000Y-108640000D02*
X149765000Y-108230000D01*
X149765000Y-115210000D02*
X149765000Y-114560000D01*
X150415000Y-107990000D02*
X150065000Y-107990000D01*
X150415000Y-115210000D02*
X149765000Y-115210000D01*
X156335000Y-107990000D02*
X156985000Y-107990000D01*
X156335000Y-115210000D02*
X156985000Y-115210000D01*
X156985000Y-107990000D02*
X156985000Y-108640000D01*
X156985000Y-115210000D02*
X156985000Y-114560000D01*
X149765000Y-107990000D02*
X149525000Y-107660000D01*
X150005000Y-107660000D01*
X149765000Y-107990000D01*
G36*
X149765000Y-107990000D02*
G01*
X149525000Y-107660000D01*
X150005000Y-107660000D01*
X149765000Y-107990000D01*
G37*
%TO.C,J1*%
X148675000Y-82600000D02*
X148675000Y-80700000D01*
X148675000Y-86500000D02*
X148675000Y-84500000D01*
X158075000Y-80700000D02*
X148675000Y-80700000D01*
X158075000Y-82600000D02*
X158075000Y-80700000D01*
X158075000Y-86500000D02*
X158075000Y-84500000D01*
%TO.C,C16*%
X154940000Y-119207836D02*
X154940000Y-118992164D01*
X155660000Y-119207836D02*
X155660000Y-118992164D01*
%TO.C,C9*%
X159287164Y-112220000D02*
X159502836Y-112220000D01*
X159287164Y-112940000D02*
X159502836Y-112940000D01*
%TO.C,J3*%
X160885000Y-82090000D02*
X162265000Y-82090000D01*
X160885000Y-83470000D02*
X160885000Y-82090000D01*
X160885000Y-84740000D02*
X160885000Y-133110000D01*
X160885000Y-84740000D02*
X163645000Y-84740000D01*
X160885000Y-133110000D02*
X163645000Y-133110000D01*
X163645000Y-84740000D02*
X163645000Y-133110000D01*
%TO.C,R1*%
X151645000Y-90836359D02*
X151645000Y-91143641D01*
X152405000Y-90836359D02*
X152405000Y-91143641D01*
%TO.C,C12*%
X153040000Y-103652836D02*
X153040000Y-103437164D01*
X153760000Y-103652836D02*
X153760000Y-103437164D01*
%TO.C,C8*%
X158297164Y-107815000D02*
X158512836Y-107815000D01*
X158297164Y-108535000D02*
X158512836Y-108535000D01*
%TO.C,R4*%
X154720000Y-105936359D02*
X154720000Y-106243641D01*
X155480000Y-105936359D02*
X155480000Y-106243641D01*
%TO.C,C17*%
X151132836Y-101590000D02*
X150917164Y-101590000D01*
X151132836Y-102310000D02*
X150917164Y-102310000D01*
%TO.C,J2*%
X143105000Y-82090000D02*
X144485000Y-82090000D01*
X143105000Y-83470000D02*
X143105000Y-82090000D01*
X143105000Y-84740000D02*
X143105000Y-133110000D01*
X143105000Y-84740000D02*
X145865000Y-84740000D01*
X143105000Y-133110000D02*
X145865000Y-133110000D01*
X145865000Y-84740000D02*
X145865000Y-133110000D01*
%TO.C,U2*%
X149365000Y-93650000D02*
X149365000Y-93000000D01*
X149365000Y-93650000D02*
X149365000Y-94300000D01*
X152485000Y-93650000D02*
X152485000Y-93000000D01*
X152485000Y-93650000D02*
X152485000Y-94300000D01*
X149415000Y-94812500D02*
X149085000Y-95052500D01*
X149085000Y-94572500D01*
X149415000Y-94812500D01*
G36*
X149415000Y-94812500D02*
G01*
X149085000Y-95052500D01*
X149085000Y-94572500D01*
X149415000Y-94812500D01*
G37*
%TO.C,C3*%
X148032836Y-112470000D02*
X147817164Y-112470000D01*
X148032836Y-113190000D02*
X147817164Y-113190000D01*
%TO.C,U4*%
X148675000Y-102790000D02*
X151675000Y-102790000D01*
X148675000Y-105060000D02*
X151675000Y-105060000D01*
X148125000Y-102875000D02*
X147845000Y-102875000D01*
X148125000Y-102595000D01*
X148125000Y-102875000D01*
G36*
X148125000Y-102875000D02*
G01*
X147845000Y-102875000D01*
X148125000Y-102595000D01*
X148125000Y-102875000D01*
G37*
%TD*%
M02*
